<svg width="146" height="87" viewBox="0 0 146 87" fill="none" xmlns="http://www.w3.org/2000/svg">
<g clip-path="url(#clip0)">
<path d="M111.781 86.0162C109.912 84.4419 108.776 81.9551 109.074 79.5341C109.372 77.1131 111.216 74.8875 113.608 74.3734C116 73.8593 118.727 75.2825 119.454 77.6115C119.854 73.1211 120.315 68.4426 122.71 64.6186C124.879 61.156 128.635 58.6785 132.707 58.2352C136.778 57.792 141.064 59.466 143.603 62.6688C146.142 65.8716 146.764 70.5278 144.986 74.2048C143.676 76.9136 141.262 78.9295 138.733 80.5695C130.562 85.8244 120.762 87.9613 111.135 86.5871L111.781 86.0162Z" fill="#F2F2F2"/>
<path d="M139.577 59.5589C136.218 62.286 133.136 65.3361 130.377 68.665C126.058 73.857 122.563 79.6781 120.014 85.9256C119.827 86.3814 120.57 86.5798 120.754 86.1291C124.925 75.9756 131.583 67.0264 140.12 60.1C140.504 59.7889 139.958 59.2503 139.577 59.5589Z" fill="white"/>
<path d="M46.9998 85.5885C49.5671 83.4262 51.1265 80.0105 50.7176 76.6853C50.3086 73.3602 47.7756 70.3033 44.49 69.5972C41.2043 68.891 37.4589 70.8457 36.4609 74.0447C35.9117 67.8771 35.2788 61.4511 31.9889 56.1989C29.01 51.4431 23.8504 48.0401 18.2586 47.4313C12.6668 46.8225 6.7793 49.1218 3.29189 53.5209C-0.195522 57.9199 -1.0494 64.3151 1.39309 69.3656C3.19239 73.086 6.50734 75.8548 9.98057 78.1074C21.0614 85.2939 34.8071 88.2912 47.8864 86.3727" fill="#F2F2F2"/>
<path d="M8.82156 49.2493C13.4355 52.995 17.6683 57.1843 21.4588 61.7566C25.2498 66.3243 28.5874 71.2476 31.4247 76.4575C33.0106 79.38 34.4353 82.3867 35.6923 85.464C35.9486 86.09 34.9288 86.3625 34.6753 85.7435C32.4488 80.3182 29.6941 75.1234 26.4508 70.2337C23.2233 65.3617 19.5292 60.8132 15.4205 56.6522C13.0966 54.2998 10.6446 52.0766 8.07578 49.9926C7.54925 49.5653 8.29937 48.8255 8.82156 49.2493L8.82156 49.2493Z" fill="white"/>
<path d="M104.801 86.8096H43.5483V24.1695C43.5483 10.8424 54.4265 0 67.7977 0H80.5518C93.9229 0 104.801 10.8424 104.801 24.1695V86.8096Z" fill="#F2F2F2"/>
<path d="M92.0471 86.8096H43.5483V24.1695C43.5349 19.0629 45.1573 14.0853 48.1793 9.96147C48.2907 9.81013 48.4018 9.66076 48.5164 9.51301C49.9781 7.60221 51.7176 5.91939 53.6774 4.52011C53.7882 4.43983 53.8993 4.36093 54.0121 4.28204C55.652 3.15091 57.426 2.22623 59.2936 1.52906C59.4045 1.48716 59.5175 1.44518 59.6304 1.40491C61.3195 0.804116 63.0704 0.392574 64.8509 0.177883C64.9612 0.162855 65.0746 0.151095 65.1879 0.139334C66.9229 -0.04557 68.6728 -0.04557 70.4079 0.139334C70.5209 0.151095 70.6342 0.162853 70.7459 0.178044C72.5259 0.392748 74.2764 0.804241 75.965 1.40492C76.078 1.44519 76.1909 1.48716 76.3021 1.52914C78.1467 2.21752 79.8998 3.1284 81.5223 4.24145C81.635 4.31863 81.7478 4.39753 81.859 4.47642C82.9575 5.258 83.9894 6.12872 84.944 7.0797C85.7096 7.84249 86.423 8.65559 87.0794 9.51351C87.1936 9.66077 87.3047 9.81014 87.4159 9.96124C90.438 14.0851 92.0605 19.0628 92.0471 24.1695V86.8096Z" fill="#CCCCCC"/>
<path d="M88.1035 58.793C89.5864 58.793 90.7885 57.5948 90.7885 56.1168C90.7885 54.6387 89.5864 53.4406 88.1035 53.4406C86.6205 53.4406 85.4184 54.6387 85.4184 56.1168C85.4184 57.5948 86.6205 58.793 88.1035 58.793Z" fill="#6C63FF"/>
<path d="M99.7833 84.9334H97.7259L96.747 77.0238L99.7837 77.024L99.7833 84.9334Z" fill="#FFB8B8"/>
<path d="M96.2563 84.3474H100.224V86.8375H93.758C93.758 86.5105 93.8226 86.1867 93.9482 85.8846C94.0737 85.5825 94.2577 85.308 94.4897 85.0767C94.7217 84.8455 94.9971 84.6621 95.3002 84.537C95.6033 84.4118 95.9282 84.3474 96.2563 84.3474Z" fill="#2F2E41"/>
<path d="M110.02 84.9334H107.963L106.984 77.0238L110.02 77.024L110.02 84.9334Z" fill="#FFB8B8"/>
<path d="M106.493 84.3474H110.461V86.8375H103.995C103.995 86.5105 104.059 86.1867 104.185 85.8846C104.31 85.5825 104.494 85.308 104.726 85.0767C104.958 84.8455 105.234 84.6621 105.537 84.537C105.84 84.4118 106.165 84.3474 106.493 84.3474Z" fill="#2F2E41"/>
<path d="M89.4624 56.6469C89.3144 56.4296 89.216 56.1825 89.1741 55.9232C89.1323 55.6638 89.148 55.3985 89.2201 55.1458C89.2923 54.8932 89.4192 54.6594 89.5918 54.4609C89.7644 54.2624 89.9786 54.104 90.2193 53.997L97.2132 34.784L100.655 36.6559L92.6691 55.0165C92.8228 55.4314 92.8184 55.8881 92.6568 56.3C92.4952 56.7119 92.1876 57.0504 91.7923 57.2514C91.3971 57.4523 90.9415 57.5018 90.5121 57.3904C90.0827 57.279 89.7092 57.0145 89.4624 56.6469Z" fill="#FFB8B8"/>
<path d="M108.969 60.2571C108.74 60.1265 108.543 59.9474 108.392 59.7326C108.24 59.5178 108.137 59.2725 108.091 59.0139C108.045 58.7553 108.056 58.4897 108.124 58.2359C108.192 57.982 108.314 57.7461 108.484 57.5447L106.317 37.2207L110.233 37.399L111.134 57.3904C111.454 57.6961 111.651 58.1085 111.687 58.5493C111.723 58.9901 111.596 59.4287 111.329 59.7821C111.062 60.1355 110.675 60.379 110.24 60.4666C109.805 60.5541 109.353 60.4796 108.969 60.2571Z" fill="#FFB8B8"/>
<path d="M102.721 31.2253C104.998 31.2253 106.843 29.386 106.843 27.1171C106.843 24.8483 104.998 23.009 102.721 23.009C100.445 23.009 98.5995 24.8483 98.5995 27.1171C98.5995 29.386 100.445 31.2253 102.721 31.2253Z" fill="#FFB8B8"/>
<path d="M108.943 55.6348H96.5165L96.5314 55.5385C96.5538 55.3944 98.7461 41.0804 97.1292 36.3975C96.9669 35.9374 96.9812 35.4336 97.1692 34.9833C97.3573 34.5329 97.7058 34.1678 98.1477 33.9583H98.1477C100.459 32.8735 104.895 31.5378 108.64 34.7794C109.191 35.2643 109.621 35.8702 109.896 36.5494C110.172 37.2286 110.285 37.9624 110.227 38.6927L108.943 55.6348Z" fill="#6C63FF"/>
<path d="M98.9032 43.1958L93.3087 42.0646L95.9311 35.8708C96.088 35.2709 96.4772 34.7576 97.0134 34.4433C97.5496 34.1291 98.1889 34.0397 98.7912 34.1946C99.3934 34.3496 99.9094 34.7363 100.226 35.27C100.543 35.8036 100.634 36.4406 100.48 37.0413L98.9032 43.1958Z" fill="#6C63FF"/>
<path d="M106.068 45.2962L105.732 37.6119C105.477 36.1674 106.307 34.8018 107.582 34.5786C108.859 34.3562 110.105 35.3581 110.361 36.8132L111.625 43.9935L106.068 45.2962Z" fill="#6C63FF"/>
<path d="M108.529 54.7149C110.529 62.3047 110.747 71.9546 110.208 82.4806L107.523 82.146L102.656 62.0745L99.9708 82.4806L96.9501 82.3133C96.0477 71.269 95.169 61.7875 96.6145 55.5512L108.529 54.7149Z" fill="#2F2E41"/>
<path d="M105.437 30.292C104.668 31.1084 103.24 30.6701 103.14 29.5549C103.132 29.4683 103.133 29.3811 103.142 29.2946C103.193 28.8006 103.48 28.3521 103.411 27.8305C103.396 27.7007 103.347 27.577 103.27 27.4711C102.657 26.6533 101.219 27.8368 100.641 27.0965C100.286 26.6426 100.703 25.9278 100.431 25.4204C100.072 24.7508 99.008 25.0811 98.3409 24.7144C97.5987 24.3064 97.6431 23.1714 98.1317 22.481C98.7275 21.6391 99.7722 21.1898 100.804 21.1251C101.836 21.0603 102.86 21.3383 103.823 21.7124C104.918 22.1375 106.003 22.7249 106.676 23.684C107.495 24.8504 107.574 26.4184 107.164 27.7822C106.915 28.6119 106.065 29.6254 105.437 30.292Z" fill="#2F2E41"/>
<path d="M140.962 86.9172H17.0648C17.0119 86.917 16.9613 86.896 16.9239 86.8586C16.8866 86.8213 16.8656 86.7707 16.8656 86.718C16.8656 86.6653 16.8866 86.6147 16.9239 86.5774C16.9613 86.5401 17.0119 86.519 17.0648 86.5189H140.962C141.015 86.519 141.066 86.5401 141.103 86.5774C141.141 86.6147 141.162 86.6653 141.162 86.718C141.162 86.7707 141.141 86.8213 141.103 86.8586C141.066 86.896 141.015 86.917 140.962 86.9172Z" fill="#3F3D56"/>
<path d="M78.7058 68.6615H56.8897C56.6024 68.6631 56.3262 68.5509 56.1217 68.3498C55.9172 68.1486 55.8011 67.8748 55.7989 67.5885V19.0538C55.8011 18.7675 55.9172 18.4937 56.1217 18.2925C56.3262 18.0913 56.6024 17.9792 56.8897 17.9808H78.7058C78.9931 17.9792 79.2693 18.0913 79.4738 18.2925C79.6783 18.4937 79.7944 18.7675 79.7966 19.0538V67.5885C79.7944 67.8748 79.6783 68.1486 79.4738 68.3498C79.2693 68.5509 78.9931 68.6631 78.7058 68.6615Z" fill="white"/>
<path d="M79.7965 33.6851H55.7988V34.0196H79.7965V33.6851Z" fill="#CCCCCC"/>
<path d="M79.8805 52.7715H55.8828V53.106H79.8805V52.7715Z" fill="#CCCCCC"/>
<path d="M63.6862 17.9808H63.3506V68.8288H63.6862V17.9808Z" fill="#CCCCCC"/>
<path d="M72.077 17.9808H71.7413V68.8288H72.077V17.9808Z" fill="#CCCCCC"/>
</g>
<defs>
<clipPath id="clip0">
<rect width="146" height="87" fill="white"/>
</clipPath>
</defs>
</svg>
