<svg width="157" height="98" viewBox="0 0 157 98" fill="none" xmlns="http://www.w3.org/2000/svg">
<g clip-path="url(#clip0)">
<path d="M14.8065 94.8865C15.5012 95.8242 16.3625 96.6258 17.3471 97.2511C17.5565 97.384 17.7715 97.5095 17.9902 97.6255H23.1369C23.0753 97.502 23.0154 97.3765 22.9574 97.2511C21.3617 93.8788 20.8613 90.0905 21.5266 86.4187C22.1919 82.7468 23.9894 79.3761 26.6666 76.7803C23.5557 77.7426 20.6804 79.6186 18.7997 82.279C17.8859 83.5746 17.236 85.0378 16.8872 86.5851C16.5764 83.4907 17.0704 80.3684 18.3211 77.5217C15.7955 79.5793 13.8287 82.397 13.079 85.5685C12.3294 88.7419 12.8734 92.2635 14.8065 94.8865Z" fill="#F0F0F0"/>
<path d="M156.186 52.6072H121.195C120.979 52.6069 120.773 52.521 120.62 52.3682C120.467 52.2154 120.382 52.0083 120.381 51.7922V30.1151C120.382 29.899 120.467 29.6919 120.62 29.5391C120.773 29.3864 120.979 29.3004 121.195 29.3002H156.186C156.402 29.3004 156.609 29.3864 156.761 29.5391C156.914 29.6919 157 29.899 157 30.1151V51.7922C157 52.0083 156.914 52.2154 156.761 52.3682C156.609 52.521 156.402 52.6069 156.186 52.6072Z" fill="white"/>
<path d="M156.186 52.6072H121.195C120.979 52.6069 120.773 52.521 120.62 52.3682C120.467 52.2154 120.382 52.0083 120.381 51.7922V30.1151C120.382 29.899 120.467 29.6919 120.62 29.5391C120.773 29.3864 120.979 29.3004 121.195 29.3002H156.186C156.402 29.3004 156.609 29.3864 156.761 29.5391C156.914 29.6919 157 29.899 157 30.1151V51.7922C157 52.0083 156.914 52.2154 156.761 52.3682C156.609 52.521 156.402 52.6069 156.186 52.6072ZM121.195 29.6261C121.066 29.6263 120.942 29.6778 120.85 29.7695C120.758 29.8612 120.707 29.9855 120.707 30.1151V51.7922C120.707 51.9219 120.758 52.0462 120.85 52.1378C120.942 52.2295 121.066 52.2811 121.195 52.2812H156.186C156.316 52.2811 156.44 52.2295 156.531 52.1378C156.623 52.0462 156.674 51.9219 156.675 51.7922V30.1151C156.674 29.9855 156.623 29.8612 156.531 29.7695C156.44 29.6778 156.316 29.6263 156.186 29.6261H121.195Z" fill="#3F3D56"/>
<path d="M149.269 36.5397H128.112C127.918 36.5397 127.731 36.4625 127.594 36.3249C127.457 36.1874 127.38 36.0008 127.38 35.8063C127.38 35.6118 127.457 35.4252 127.594 35.2877C127.731 35.1501 127.918 35.0728 128.112 35.0728H149.269C149.464 35.0728 149.65 35.1501 149.787 35.2877C149.925 35.4252 150.002 35.6118 150.002 35.8063C150.002 36.0008 149.925 36.1874 149.787 36.3249C149.65 36.4625 149.464 36.5397 149.269 36.5397Z" fill="#CCCCCC"/>
<path d="M149.269 41.5923H128.112C127.918 41.5923 127.731 41.515 127.594 41.3775C127.457 41.2399 127.38 41.0534 127.38 40.8588C127.38 40.6643 127.457 40.4778 127.594 40.3402C127.731 40.2027 127.918 40.1254 128.112 40.1254H149.269C149.464 40.1254 149.65 40.2027 149.787 40.3402C149.925 40.4778 150.002 40.6643 150.002 40.8588C150.002 41.0534 149.925 41.2399 149.787 41.3775C149.65 41.515 149.464 41.5923 149.269 41.5923Z" fill="#CCCCCC"/>
<path d="M147.384 49.6032C148.83 49.6032 150.002 48.4297 150.002 46.9821C150.002 45.5345 148.83 44.361 147.384 44.361C145.939 44.361 144.767 45.5345 144.767 46.9821C144.767 48.4297 145.939 49.6032 147.384 49.6032Z" fill="#6C63FF"/>
<path d="M147.456 45.7474V45.4977H147.53V45.7474C147.635 45.7519 147.737 45.777 147.832 45.8213C147.901 45.8537 147.96 45.9032 148.004 45.9651C148.045 46.0224 148.067 46.091 148.067 46.1614C148.068 46.2128 148.051 46.263 148.018 46.3027C148.004 46.3207 147.986 46.3353 147.965 46.3453C147.945 46.3552 147.922 46.3603 147.899 46.3602C147.882 46.3605 147.865 46.3573 147.849 46.3508C147.834 46.3443 147.819 46.3347 147.807 46.3224C147.795 46.3102 147.785 46.2956 147.779 46.2795C147.772 46.2634 147.769 46.2461 147.77 46.2288C147.77 46.2044 147.775 46.1804 147.784 46.1581L147.814 46.0957C147.824 46.0696 147.829 46.0416 147.829 46.0135C147.83 45.97 147.816 45.9275 147.789 45.8928C147.761 45.8565 147.722 45.8293 147.678 45.8147C147.63 45.799 147.58 45.7891 147.53 45.7852V46.6838L147.547 46.6937C147.701 46.7754 147.841 46.8814 147.962 47.0075C148.015 47.0708 148.058 47.1428 148.087 47.2202C148.117 47.2954 148.132 47.3753 148.132 47.456C148.134 47.5604 148.106 47.6633 148.054 47.7533C148.002 47.8413 147.926 47.9125 147.835 47.9587C147.74 48.0057 147.636 48.0358 147.53 48.0474V48.3152H147.456V48.0524C147.349 48.0515 147.243 48.0297 147.145 47.9883C147.046 47.9516 146.959 47.8892 146.893 47.8076C146.834 47.7344 146.803 47.6433 146.803 47.5496C146.801 47.4838 146.822 47.4192 146.861 47.3664C146.876 47.3436 146.897 47.3249 146.921 47.3119C146.946 47.2989 146.973 47.292 147 47.2917C147.017 47.2911 147.033 47.2939 147.049 47.3C147.064 47.306 147.078 47.3152 147.09 47.3269C147.101 47.3386 147.111 47.3525 147.117 47.3679C147.123 47.3833 147.126 47.3998 147.125 47.4163C147.119 47.4669 147.098 47.5144 147.064 47.5523C147.047 47.5758 147.031 47.6011 147.019 47.6277C147.011 47.6486 147.007 47.6708 147.007 47.6933C147.007 47.7532 147.028 47.8113 147.065 47.858C147.106 47.9104 147.16 47.9508 147.222 47.9752C147.292 48.0027 147.368 48.0161 147.443 48.0146H147.456V46.9418L147.363 46.8875C147.274 46.8361 147.207 46.7934 147.16 46.7594C147.115 46.7264 147.073 46.689 147.035 46.6477C146.941 46.5471 146.888 46.4143 146.889 46.2764C146.888 46.1905 146.91 46.106 146.951 46.0308C146.992 45.9557 147.051 45.8926 147.123 45.8476C147.224 45.7867 147.339 45.7522 147.456 45.7474ZM147.456 45.7835C147.393 45.7855 147.33 45.7994 147.272 45.8245C147.213 45.8535 147.165 45.8999 147.135 45.9573C147.099 46.0198 147.081 46.0905 147.082 46.1623C147.082 46.2498 147.108 46.3353 147.159 46.4066C147.186 46.4454 147.218 46.4802 147.255 46.5099C147.314 46.5542 147.376 46.5947 147.44 46.6313L147.456 46.6411V45.7835ZM147.53 48.0113C147.572 48.0077 147.614 47.9989 147.654 47.985C147.687 47.9724 147.717 47.9546 147.744 47.9324C147.795 47.8892 147.834 47.8342 147.858 47.7723C147.887 47.7038 147.901 47.6304 147.901 47.5562C147.894 47.4372 147.857 47.322 147.792 47.2222C147.727 47.1224 147.636 47.0416 147.53 46.9878V48.0113Z" fill="white"/>
<path d="M132.35 38.0975H97.359C97.1432 38.0973 96.9364 38.0113 96.7838 37.8585C96.6313 37.7058 96.5455 37.4986 96.5452 37.2826V15.6054C96.5455 15.3894 96.6313 15.1822 96.7838 15.0295C96.9364 14.8767 97.1432 14.7907 97.359 14.7905H132.35C132.566 14.7907 132.773 14.8767 132.925 15.0295C133.078 15.1822 133.164 15.3894 133.164 15.6054V37.2826C133.164 37.4986 133.078 37.7058 132.925 37.8585C132.773 38.0113 132.566 38.0973 132.35 38.0975Z" fill="white"/>
<path d="M132.35 38.0975H97.359C97.1432 38.0973 96.9364 38.0113 96.7838 37.8585C96.6313 37.7058 96.5455 37.4986 96.5452 37.2826V15.6054C96.5455 15.3894 96.6313 15.1822 96.7838 15.0295C96.9364 14.8767 97.1432 14.7907 97.359 14.7905H132.35C132.566 14.7907 132.773 14.8767 132.925 15.0295C133.078 15.1822 133.164 15.3894 133.164 15.6054V37.2826C133.164 37.4986 133.078 37.7058 132.925 37.8585C132.773 38.0113 132.566 38.0973 132.35 38.0975ZM97.359 15.1165C97.2295 15.1166 97.1054 15.1682 97.0139 15.2598C96.9224 15.3515 96.8709 15.4758 96.8707 15.6054V37.2826C96.8709 37.4122 96.9224 37.5365 97.0139 37.6282C97.1054 37.7198 97.2295 37.7714 97.359 37.7715H132.35C132.48 37.7714 132.604 37.7198 132.695 37.6282C132.787 37.5365 132.838 37.4122 132.838 37.2826V15.6054C132.838 15.4758 132.787 15.3515 132.695 15.2598C132.604 15.1682 132.48 15.1166 132.35 15.1165H97.359Z" fill="#3F3D56"/>
<path d="M125.433 22.03H104.276C104.082 22.03 103.895 21.9528 103.758 21.8152C103.621 21.6777 103.543 21.4911 103.543 21.2966C103.543 21.1021 103.621 20.9155 103.758 20.778C103.895 20.6404 104.082 20.5632 104.276 20.5632H125.433C125.628 20.5632 125.814 20.6404 125.951 20.778C126.088 20.9155 126.166 21.1021 126.166 21.2966C126.166 21.4911 126.088 21.6777 125.951 21.8152C125.814 21.9528 125.628 22.03 125.433 22.03Z" fill="#CCCCCC"/>
<path d="M125.433 27.0826H104.276C104.082 27.0826 103.895 27.0053 103.758 26.8678C103.621 26.7303 103.543 26.5437 103.543 26.3492C103.543 26.1547 103.621 25.9681 103.758 25.8306C103.895 25.693 104.082 25.6157 104.276 25.6157H125.433C125.628 25.6157 125.814 25.693 125.951 25.8306C126.088 25.9681 126.166 26.1547 126.166 26.3492C126.166 26.5437 126.088 26.7303 125.951 26.8678C125.814 27.0053 125.628 27.0826 125.433 27.0826Z" fill="#CCCCCC"/>
<path d="M123.548 35.0936C124.994 35.0936 126.166 33.9201 126.166 32.4725C126.166 31.0249 124.994 29.8514 123.548 29.8514C122.103 29.8514 120.931 31.0249 120.931 32.4725C120.931 33.9201 122.103 35.0936 123.548 35.0936Z" fill="#6C63FF"/>
<path d="M123.62 31.2377V30.988H123.694V31.2377C123.799 31.2422 123.901 31.2674 123.996 31.3116C124.065 31.344 124.124 31.3935 124.168 31.4554C124.209 31.5127 124.231 31.5814 124.231 31.6517C124.232 31.7031 124.215 31.7534 124.182 31.793C124.168 31.8111 124.15 31.8256 124.129 31.8356C124.109 31.8456 124.086 31.8507 124.063 31.8505C124.046 31.8508 124.029 31.8477 124.013 31.8412C123.998 31.8347 123.983 31.825 123.971 31.8127C123.959 31.8005 123.949 31.7859 123.943 31.7698C123.936 31.7537 123.933 31.7364 123.934 31.7191C123.934 31.6948 123.939 31.6707 123.948 31.6484L123.978 31.586C123.988 31.5599 123.993 31.532 123.993 31.5039C123.993 31.4603 123.98 31.4178 123.953 31.3831C123.925 31.3468 123.886 31.3196 123.842 31.3051C123.794 31.2893 123.744 31.2794 123.694 31.2755V32.1741L123.71 32.184C123.865 32.2657 124.005 32.3717 124.126 32.4978C124.179 32.5612 124.221 32.6331 124.251 32.7106C124.281 32.7857 124.296 32.8656 124.296 32.9463C124.298 33.0508 124.27 33.1536 124.217 33.2437C124.166 33.3316 124.09 33.4029 123.999 33.449C123.903 33.4961 123.8 33.5261 123.694 33.5377V33.8055H123.62V33.5427C123.513 33.5418 123.407 33.5201 123.309 33.4786C123.21 33.4419 123.123 33.3795 123.057 33.2979C122.998 33.2247 122.967 33.1336 122.967 33.04C122.965 32.9741 122.986 32.9096 123.025 32.8567C123.04 32.834 123.061 32.8153 123.085 32.8023C123.11 32.7893 123.137 32.7823 123.164 32.782C123.181 32.7814 123.197 32.7843 123.213 32.7903C123.228 32.7964 123.242 32.8055 123.254 32.8172C123.265 32.8289 123.274 32.8429 123.28 32.8582C123.287 32.8736 123.289 32.8901 123.289 32.9066C123.283 32.9572 123.262 33.0048 123.228 33.0427C123.211 33.0661 123.195 33.0914 123.183 33.1181C123.175 33.1389 123.17 33.1612 123.171 33.1836C123.171 33.2435 123.192 33.3016 123.229 33.3483C123.27 33.4007 123.324 33.4412 123.386 33.4655C123.456 33.4931 123.531 33.5064 123.607 33.5049H123.62V32.4321L123.527 32.3779C123.438 32.3264 123.371 32.2837 123.324 32.2497C123.279 32.2167 123.237 32.1793 123.199 32.138C123.104 32.0375 123.052 31.9046 123.053 31.7667C123.052 31.6809 123.074 31.5963 123.115 31.5211C123.155 31.4461 123.215 31.3829 123.287 31.3379C123.388 31.277 123.503 31.2426 123.62 31.2377ZM123.62 31.2738C123.557 31.2758 123.494 31.2897 123.436 31.3149C123.377 31.3438 123.329 31.3902 123.298 31.4477C123.263 31.5102 123.245 31.5809 123.246 31.6526C123.246 31.7401 123.272 31.8256 123.323 31.8969C123.35 31.9358 123.382 31.9706 123.419 32.0003C123.478 32.0445 123.54 32.085 123.604 32.1216L123.62 32.1314V31.2738ZM123.694 33.5016C123.736 33.4981 123.778 33.4892 123.818 33.4753C123.851 33.4627 123.881 33.445 123.908 33.4228C123.959 33.3795 123.998 33.3246 124.022 33.2626C124.051 33.1942 124.065 33.1207 124.065 33.0465C124.058 32.9275 124.021 32.8123 123.956 32.7125C123.89 32.6127 123.8 32.5319 123.694 32.4781V33.5016Z" fill="white"/>
<path d="M59.8138 34.863C59.509 34.8409 59.203 34.886 58.9175 34.9952C58.6319 35.1044 58.3738 35.2749 58.1611 35.4948C57.9485 35.7147 57.7867 35.9786 57.6869 36.2679C57.5872 36.5572 57.552 36.865 57.5838 37.1694L50.8569 40.3276L54.1494 42.3466L60.0327 39.0379C60.5398 38.9505 60.9972 38.6797 61.3183 38.2771C61.6395 37.8744 61.8019 37.3677 61.7749 36.8531C61.748 36.3385 61.5334 35.8516 61.172 35.4849C60.8105 35.1181 60.3273 34.8968 59.8138 34.863Z" fill="#FFB6B6"/>
<path d="M31.9776 95.6271L34.3008 95.627L35.4061 86.653L31.9772 86.6532L31.9776 95.6271Z" fill="#FFB6B6"/>
<path d="M31.3851 94.8675L35.9603 94.8673H35.9605C36.7337 94.8674 37.4753 95.175 38.0221 95.7226C38.5689 96.2701 38.8761 97.0128 38.8761 97.7872V97.8821L31.3852 97.8824L31.3851 94.8675Z" fill="#2F2E41"/>
<path d="M43.8321 95.6271L46.1553 95.627L47.2606 86.653L43.8317 86.6532L43.8321 95.6271Z" fill="#FFB6B6"/>
<path d="M43.2396 94.8675L47.8148 94.8673H47.8149C48.5882 94.8674 49.3298 95.175 49.8766 95.7226C50.4234 96.2701 50.7306 97.0128 50.7306 97.7872V97.8821L43.2397 97.8824L43.2396 94.8675Z" fill="#2F2E41"/>
<path d="M45.384 49.0818L46.5631 51.6241L48.6889 74.3599L47.0364 93.9017H43.1716L38.6111 63.0993L36.4691 93.1921L31.2543 92.9813L30.2532 52.182L45.384 49.0818Z" fill="#2F2E41"/>
<path d="M26.5934 28.1009L31.482 26.1091L38.3821 26.4966L44.5165 28.7354L46.5631 51.6241C41.2264 54.5425 35.8205 55.3391 30.3205 53.2523L25.2161 38.3443L26.5934 28.1009Z" fill="#E4E4E4"/>
<path d="M42.608 29.3405L44.7774 28.7354C44.7774 28.7354 46.4182 27.6669 46.9581 30.843C47.4979 34.0191 50.2758 38.9594 50.2758 38.9594L55.0313 36.4214L57.2329 41.2365L49.723 45.7923L41.8144 37.8121L42.608 29.3405Z" fill="#E4E4E4"/>
<path d="M30.7084 21.8684C30.4449 21.2698 30.3018 20.625 30.2872 19.9709C30.2725 19.3169 30.3867 18.6664 30.6231 18.0565C30.8595 17.4466 31.2136 16.8893 31.665 16.4165C32.1165 15.9437 32.6566 15.5645 33.2544 15.3007C33.8522 15.0368 34.496 14.8935 35.1491 14.8788C35.8022 14.8642 36.4518 14.9785 37.0608 15.2153C37.6698 15.452 38.2262 15.8066 38.6984 16.2587C39.1706 16.7109 39.5492 17.2517 39.8126 17.8504L39.8411 17.9163C40.3645 19.1293 40.3853 20.501 39.8989 21.7294C39.658 22.3377 39.2999 22.8925 38.845 23.3621C38.39 23.8318 37.8472 24.2071 37.2474 24.4667C36.0361 24.9909 34.6664 25.0117 33.4398 24.5246C32.2131 24.0375 31.2299 23.0823 30.7065 21.8692L30.7084 21.8684Z" fill="#FFB6B6"/>
<path d="M37.462 17.309C38.4964 17.4969 40.0971 18.1491 40.9855 17.384C40.5467 16.8706 39.9949 16.4663 39.3734 16.2031C39.251 16.1624 39.1376 16.0983 39.0397 16.0143C38.7368 15.7077 38.9708 15.1796 38.8322 14.7651C38.7649 14.6137 38.6634 14.4799 38.5357 14.3745C38.408 14.269 38.2576 14.1947 38.0963 14.1574C37.788 14.065 37.4649 14.05 37.162 13.938C36.4452 13.6682 35.9356 12.8961 35.2009 12.6863C34.5607 12.5009 33.9166 12.7891 33.3641 13.1254C32.8116 13.4617 32.2651 13.8608 31.6187 13.9246C31.1357 13.9687 30.83 14.7643 30.3451 14.7877C29.329 14.8372 29.3854 14.1665 29.3103 15.2355C29.2669 15.8734 28.3567 17.1425 28.3715 17.786C28.3865 18.2076 28.3121 18.6252 28.3241 19.0481C28.3514 19.8537 28.674 20.6209 29.2303 21.2033C29.6929 21.6798 30.2946 22.0011 30.684 22.5441C30.8865 22.8324 31.027 23.1689 31.2627 23.4298C31.4985 23.6906 31.8978 23.8476 32.1609 23.6614C32.424 23.4752 32.4289 23.0721 32.5594 22.7654C32.6395 22.5774 32.7763 22.4192 32.9506 22.3129C33.125 22.2066 33.3281 22.1576 33.5317 22.1727C33.7431 22.2004 33.9426 22.2866 34.1078 22.4216C34.273 22.5566 34.3972 22.7351 34.4666 22.937C34.3434 22.2593 34.0186 21.6242 33.8952 20.946C33.7717 20.2677 33.9326 19.4574 34.5158 19.1926C34.7662 19.0759 35.1045 19.0446 35.2051 18.7757C35.2667 18.6137 35.2104 18.4224 35.2341 18.2472C35.3623 17.3888 36.7875 17.1764 37.462 17.309Z" fill="#2F2E41"/>
<path d="M30.9066 52.9877C30.862 52.6848 30.7517 52.3955 30.5834 52.14C30.4151 51.8845 30.1929 51.6691 29.9324 51.5089C29.672 51.3488 29.3796 51.2477 29.076 51.2129C28.7723 51.1781 28.4647 51.2104 28.1749 51.3076L23.6379 45.4158L22.3836 49.0724L26.8843 54.1067C27.0795 54.5836 27.4426 54.9721 27.9047 55.1987C28.3669 55.4253 28.896 55.4743 29.3918 55.3364C29.8876 55.1985 30.3157 54.8832 30.5949 54.4503C30.874 54.0174 30.985 53.497 30.9066 52.9877V52.9877Z" fill="#FFB6B6"/>
<path d="M28.1605 29.2122L26.5934 28.1009C26.5934 28.1009 23.0083 27.8952 22.4867 30.843L15.9129 41.6729L24.0636 52.9338L28.0152 48.768L23.0291 42.9327L27.2155 35.235L28.1605 29.2122Z" fill="#E4E4E4"/>
<path d="M66.34 30.9282H66.2578V28.6727C66.2578 28.5013 66.2241 28.3315 66.1586 28.1732C66.0931 28.0148 65.997 27.8709 65.876 27.7497C65.755 27.6284 65.6113 27.5323 65.4531 27.4667C65.295 27.4011 65.1255 27.3673 64.9543 27.3673H60.1827C60.0115 27.3673 59.842 27.4011 59.6839 27.4667C59.5257 27.5323 59.382 27.6284 59.261 27.7497C59.1399 27.8709 59.0439 28.0148 58.9784 28.1732C58.9129 28.3315 58.8792 28.5013 58.8792 28.6727V41.0464C58.8792 41.2178 58.9129 41.3876 58.9784 41.546C59.0439 41.7043 59.1399 41.8482 59.261 41.9695C59.382 42.0907 59.5257 42.1868 59.6839 42.2524C59.842 42.318 60.0115 42.3518 60.1827 42.3518H64.9543C65.1255 42.3518 65.2949 42.318 65.4531 42.2524C65.6112 42.1868 65.755 42.0907 65.876 41.9695C65.997 41.8482 66.0931 41.7043 66.1586 41.546C66.2241 41.3876 66.2578 41.2178 66.2578 41.0464V32.5337H66.34V30.9282Z" fill="#3F3D56"/>
<path d="M65.0069 27.707H64.384C64.4127 27.7773 64.4236 27.8536 64.4159 27.9291C64.4081 28.0047 64.382 28.0772 64.3397 28.1402C64.2974 28.2033 64.2402 28.2549 64.1733 28.2906C64.1063 28.3263 64.0317 28.345 63.9558 28.345H61.2222C61.1464 28.345 61.0717 28.3263 61.0048 28.2906C60.9379 28.2549 60.8807 28.2033 60.8384 28.1402C60.7961 28.0772 60.77 28.0047 60.7622 27.9291C60.7545 27.8536 60.7654 27.7773 60.7941 27.707H60.2123C59.9541 27.707 59.7065 27.8097 59.524 27.9925C59.3414 28.1753 59.2389 28.4233 59.2389 28.6818V41.0373C59.2389 41.2959 59.3414 41.5438 59.524 41.7267C59.7065 41.9095 59.9541 42.0122 60.2123 42.0122H65.0069C65.265 42.0122 65.5126 41.9095 65.6952 41.7267C65.8778 41.5438 65.9803 41.2959 65.9803 41.0373V28.6818C65.9803 28.4233 65.8778 28.1753 65.6952 27.9925C65.5126 27.8097 65.265 27.707 65.0069 27.707Z" fill="#6C63FF"/>
<path d="M108.047 23.307H73.0555C72.8397 23.3068 72.6329 23.2208 72.4803 23.068C72.3278 22.9153 72.242 22.7081 72.2417 22.4921V0.814932C72.242 0.598875 72.3278 0.391736 72.4803 0.238961C72.6329 0.086185 72.8397 0.000247263 73.0555 0H108.047C108.262 0.000247264 108.469 0.086185 108.622 0.238961C108.774 0.391736 108.86 0.598875 108.86 0.814932V22.4921C108.86 22.7081 108.774 22.9153 108.622 23.068C108.469 23.2208 108.262 23.3068 108.047 23.307Z" fill="white"/>
<path d="M108.047 23.307H73.0555C72.8397 23.3068 72.6329 23.2208 72.4803 23.068C72.3278 22.9153 72.242 22.7081 72.2417 22.4921V0.814932C72.242 0.598875 72.3278 0.391736 72.4803 0.238961C72.6329 0.086185 72.8397 0.000247263 73.0555 0H108.047C108.262 0.000247264 108.469 0.086185 108.622 0.238961C108.774 0.391736 108.86 0.598875 108.86 0.814932V22.4921C108.86 22.7081 108.774 22.9153 108.622 23.068C108.469 23.2208 108.262 23.3068 108.047 23.307ZM73.0555 0.325972C72.926 0.326114 72.8019 0.377675 72.7104 0.469342C72.6189 0.561009 72.5674 0.685296 72.5672 0.814932V22.4921C72.5674 22.6217 72.6189 22.746 72.7104 22.8377C72.8019 22.9293 72.926 22.9809 73.0555 22.981H108.047C108.176 22.9809 108.3 22.9293 108.392 22.8377C108.483 22.746 108.535 22.6217 108.535 22.4921V0.814932C108.535 0.685296 108.483 0.561009 108.392 0.469342C108.3 0.377675 108.176 0.326114 108.047 0.325972H73.0555Z" fill="#3F3D56"/>
<path d="M101.13 7.23954H79.9723C79.7781 7.23954 79.5918 7.16227 79.4545 7.02472C79.3171 6.88717 79.24 6.70062 79.24 6.5061C79.24 6.31158 79.3171 6.12503 79.4545 5.98748C79.5918 5.84993 79.7781 5.77266 79.9723 5.77266H101.13C101.324 5.77266 101.51 5.84993 101.648 5.98748C101.785 6.12503 101.862 6.31158 101.862 6.5061C101.862 6.70062 101.785 6.88717 101.648 7.02472C101.51 7.16227 101.324 7.23954 101.13 7.23954Z" fill="#CCCCCC"/>
<path d="M101.13 12.2921H79.9723C79.7781 12.2921 79.5918 12.2148 79.4545 12.0773C79.3171 11.9398 79.24 11.7532 79.24 11.5587C79.24 11.3642 79.3171 11.1776 79.4545 11.0401C79.5918 10.9025 79.7781 10.8252 79.9723 10.8252H101.13C101.324 10.8252 101.51 10.9025 101.648 11.0401C101.785 11.1776 101.862 11.3642 101.862 11.5587C101.862 11.7532 101.785 11.9398 101.648 12.0773C101.51 12.2148 101.324 12.2921 101.13 12.2921Z" fill="#CCCCCC"/>
<path d="M99.2449 20.3031C100.69 20.3031 101.862 19.1296 101.862 17.682C101.862 16.2344 100.69 15.0609 99.2449 15.0609C97.7994 15.0609 96.6276 16.2344 96.6276 17.682C96.6276 19.1296 97.7994 20.3031 99.2449 20.3031Z" fill="#6C63FF"/>
<path d="M99.3167 16.4472V16.1975H99.3906V16.4472C99.4951 16.4517 99.5976 16.4769 99.6924 16.5211C99.7612 16.5535 99.8205 16.603 99.8647 16.6649C99.9055 16.7222 99.9273 16.7909 99.927 16.8612C99.9286 16.9126 99.9114 16.9629 99.8786 17.0025C99.8645 17.0206 99.8464 17.0351 99.8258 17.0451C99.8052 17.0551 99.7826 17.0602 99.7597 17.06C99.7426 17.0603 99.7256 17.0572 99.7098 17.0507C99.694 17.0442 99.6797 17.0345 99.6678 17.0222C99.6555 17.01 99.6457 16.9954 99.6393 16.9793C99.6328 16.9632 99.6297 16.9459 99.6301 16.9286C99.6301 16.9043 99.6352 16.8802 99.6449 16.8579L99.6744 16.7955C99.6848 16.7694 99.6898 16.7415 99.6892 16.7134C99.69 16.6698 99.6761 16.6273 99.6498 16.5926C99.621 16.5563 99.5822 16.5292 99.5382 16.5146C99.4904 16.4988 99.4408 16.4889 99.3906 16.485V17.3836L99.407 17.3935C99.5612 17.4752 99.7013 17.5812 99.822 17.7073C99.8755 17.7707 99.9179 17.8426 99.9475 17.9201C99.977 17.9952 99.9923 18.0751 99.9927 18.1558C99.994 18.2603 99.9668 18.3631 99.9139 18.4532C99.8623 18.5411 99.7865 18.6124 99.6957 18.6585C99.5999 18.7056 99.4967 18.7356 99.3906 18.7473V19.015H99.3168V18.7522C99.2097 18.7513 99.1038 18.7296 99.0051 18.6881C98.9065 18.6514 98.8196 18.589 98.7533 18.5074C98.6948 18.4342 98.6633 18.3432 98.6638 18.2495C98.6618 18.1837 98.682 18.1191 98.7213 18.0663C98.7368 18.0435 98.7576 18.0248 98.7818 18.0118C98.8061 17.9988 98.8332 17.9918 98.8607 17.9915C98.8772 17.9909 98.8937 17.9938 98.909 17.9998C98.9244 18.0059 98.9384 18.015 98.9501 18.0267C98.9618 18.0384 98.9709 18.0524 98.977 18.0677C98.9831 18.0831 98.9859 18.0996 98.9854 18.1161C98.9798 18.1667 98.9586 18.2143 98.9247 18.2522C98.907 18.2756 98.8919 18.3009 98.8796 18.3276C98.8711 18.3484 98.867 18.3707 98.8673 18.3931C98.8676 18.453 98.8881 18.5111 98.9255 18.5578C98.9663 18.6102 99.0204 18.6507 99.0822 18.675C99.1527 18.7026 99.2279 18.716 99.3036 18.7144H99.3168V17.6416L99.2232 17.5874C99.1347 17.5359 99.0671 17.4932 99.0206 17.4592C98.9752 17.4262 98.9332 17.3888 98.8952 17.3475C98.8009 17.247 98.7487 17.1141 98.7491 16.9762C98.7487 16.8904 98.7701 16.8058 98.8115 16.7306C98.852 16.6556 98.9114 16.5924 98.9837 16.5474C99.0846 16.4865 99.1991 16.4521 99.3167 16.4472ZM99.3167 16.4833C99.2532 16.4853 99.1906 16.4992 99.1322 16.5244C99.0738 16.5533 99.0259 16.5997 98.995 16.6572C98.9598 16.7197 98.9418 16.7904 98.9427 16.8621C98.942 16.9496 98.9689 17.0351 99.0195 17.1064C99.0462 17.1453 99.0784 17.1801 99.115 17.2098C99.1742 17.254 99.2362 17.2945 99.3004 17.3311L99.3167 17.3409V16.4833ZM99.3906 18.7111C99.4329 18.7076 99.4746 18.6987 99.5147 18.6848C99.5472 18.6722 99.5776 18.6545 99.6045 18.6323C99.6552 18.5891 99.6944 18.5341 99.7189 18.4721C99.7474 18.4037 99.7618 18.3302 99.7613 18.256C99.7548 18.137 99.7171 18.0218 99.652 17.922C99.587 17.8222 99.4968 17.7414 99.3906 17.6876V18.7111Z" fill="white"/>
<path d="M71.4149 98H0.18695C0.137368 98 0.0898161 97.9803 0.0547562 97.9451C0.0196963 97.91 0 97.8624 0 97.8128C0 97.7631 0.0196963 97.7155 0.0547562 97.6804C0.0898161 97.6453 0.137368 97.6255 0.18695 97.6255H71.4149C71.4645 97.6255 71.512 97.6453 71.5471 97.6804C71.5821 97.7155 71.6018 97.7631 71.6018 97.8128C71.6018 97.8624 71.5821 97.91 71.5471 97.9451C71.512 97.9803 71.4645 98 71.4149 98Z" fill="#CACACA"/>
</g>
<defs>
<clipPath id="clip0">
<rect width="157" height="98" fill="white"/>
</clipPath>
</defs>
</svg>
