<svg width="219" height="117" viewBox="0 0 219 117" fill="none" xmlns="http://www.w3.org/2000/svg">
<g clip-path="url(#clip0)">
<path opacity="0.1" d="M109.5 117C169.975 117 219 101.664 219 82.7451C219 63.8266 169.975 48.4901 109.5 48.4901C49.0248 48.4901 0 63.8266 0 82.7451C0 101.664 49.0248 117 109.5 117Z" fill="#6C63FF"/>
<g opacity="0.8">
<path opacity="0.8" d="M79.5776 6.97444C81.4339 9.58467 82.8581 17.1865 83.255 19.4771L86.5733 19.4093C86.4016 17.4413 82.5414 9.43659 81.4683 7.24024C80.8711 7.14637 80.2338 7.05468 79.5776 6.97444Z" fill="#65617D"/>
<path opacity="0.8" d="M38.1641 5.27615L38.125 7.35217L39.5947 7.38001L39.6338 5.30398L38.1641 5.27615Z" fill="#DCE0ED"/>
<path opacity="0.1" d="M38.1641 5.27611L38.1514 5.95206C38.2546 5.98378 38.3619 6.00037 38.47 6.00134L39.6205 6.0133L39.6339 5.30394L38.1641 5.27611Z" fill="black"/>
<path opacity="0.8" d="M40.354 0.0265867L38.9663 0.000307173C38.6349 -0.00590551 38.3092 0.0871724 38.0308 0.267635C37.7524 0.448098 37.5341 0.707735 37.4037 1.01332C36.9784 2.00875 36.6044 3.59735 37.4786 5.20531C37.5762 5.38496 37.7199 5.53524 37.8948 5.64065C38.0697 5.74607 38.2694 5.8028 38.4735 5.805L40.2448 5.82333L40.354 0.0265867Z" fill="#DCE0ED"/>
<path opacity="0.8" d="M41.7856 2.95309C41.8157 1.35236 41.1748 0.0421191 40.354 0.026576C39.5333 0.0110328 38.8435 1.29608 38.8134 2.89681C38.7832 4.49754 39.4241 5.80778 40.2449 5.82332C41.0656 5.83887 41.7554 4.55382 41.7856 2.95309Z" fill="#F0F0F4"/>
<path opacity="0.8" d="M51.22 5.54796L51.1858 7.36559L52.6555 7.39342L52.6898 5.5758L51.22 5.54796Z" fill="#DCE0ED"/>
<path opacity="0.1" d="M51.22 5.54794L51.2091 6.12565C51.3124 6.15737 51.4197 6.17396 51.5278 6.17493L52.6783 6.18689L52.6898 5.57578L51.22 5.54794Z" fill="black"/>
<path opacity="0.8" d="M53.41 0.298407L52.0222 0.272127C51.6908 0.265915 51.3651 0.358995 51.0867 0.539458C50.8084 0.719921 50.59 0.979558 50.4597 1.28515C50.0343 2.28057 49.6603 3.86918 50.5345 5.47713C50.6322 5.65678 50.7758 5.80706 50.9507 5.91247C51.1256 6.01789 51.3254 6.07462 51.5294 6.07682L53.3008 6.09515L53.41 0.298407Z" fill="#DCE0ED"/>
<path opacity="0.8" d="M54.8412 3.22491C54.8714 1.62418 54.2305 0.313942 53.4097 0.298402C52.589 0.282861 51.8992 1.56791 51.869 3.16863C51.8389 4.76936 52.4798 6.0796 53.3006 6.09514C54.1213 6.11068 54.8111 4.82563 54.8412 3.22491Z" fill="#F0F0F4"/>
<path opacity="0.8" d="M53.0192 1.35081C53.0192 1.35081 53.5657 1.44914 53.267 2.16931C53.1091 2.51905 52.9918 2.88582 52.9174 3.26241C52.9174 3.26241 52.3638 3.53786 52.4035 2.59284C52.4433 1.64783 53.0192 1.35081 53.0192 1.35081Z" fill="#DCE0ED"/>
<path opacity="0.8" d="M116.61 43.9872C116.709 38.7238 112.907 34.3834 108.118 34.2927C103.329 34.202 99.3659 38.3953 99.2668 43.6587C99.1677 48.9221 102.97 53.2625 107.759 53.3532C112.548 53.4439 116.511 49.2506 116.61 43.9872Z" fill="#636780"/>
<path opacity="0.1" d="M104.857 34.8257C109.39 35.2176 112.906 39.4267 112.811 44.491C112.734 48.5732 110.333 52.0111 107.025 53.3065C102.492 52.9145 98.976 48.7055 99.0714 43.6411C99.1483 39.559 101.549 36.1211 104.857 34.8257Z" fill="black"/>
<path opacity="0.8" d="M47.4988 21.8419C47.5945 16.7594 44.5209 12.5795 40.6336 12.5059C36.7463 12.4323 33.5174 16.4928 33.4217 21.5753C33.326 26.6579 36.3996 30.8378 40.2869 30.9114C44.1742 30.985 47.4031 26.9245 47.4988 21.8419Z" fill="#636780"/>
<path opacity="0.1" d="M42.5936 12.9286C45.4916 14.1057 47.5566 17.6744 47.4778 21.8542C47.3937 26.3209 44.8896 29.9977 41.6454 30.7733C38.7474 29.5963 36.6824 26.0276 36.7611 21.8478C36.8453 17.3811 39.3494 13.7042 42.5936 12.9286Z" fill="black"/>
<path opacity="0.8" d="M66.9367 20.2443L66.869 16.9014C66.869 16.9014 67.5494 15.4727 68.2051 15.3541C68.8608 15.2355 70.3647 15.1821 70.3647 15.1821C70.3647 15.1821 71.4502 20.0022 70.6392 21.4283C69.8281 22.8545 66.9367 20.2443 66.9367 20.2443Z" fill="#65617D"/>
<path opacity="0.1" d="M66.9367 20.2443L66.869 16.9014C66.869 16.9014 67.5494 15.4727 68.2051 15.3541C68.8608 15.2355 70.3647 15.1821 70.3647 15.1821C70.3647 15.1821 71.4502 20.0022 70.6392 21.4283C69.8281 22.8545 66.9367 20.2443 66.9367 20.2443Z" fill="black"/>
<path opacity="0.8" d="M78.9955 20.1123C78.9955 20.1123 79.4877 15.488 76.9502 15.3566C76.6237 15.3397 76.2972 15.3257 75.9724 15.2879C74.216 15.0837 69.4244 14.6216 69.9786 15.7317C69.9786 15.7317 71.0459 19.7816 70.2429 20.782L78.9955 20.1123Z" fill="#65617D"/>
<path opacity="0.8" d="M42.8572 28.0197L39.4504 28.0535C39.4504 28.0535 38.9809 21.7543 38.7942 21.2594C38.6075 20.7644 38.5539 18.4046 39.1973 18.0728C39.8407 17.7409 41.9797 17.3637 41.9797 17.3637L43.4799 20.9795L43.5413 24.2241L42.8572 28.0197Z" fill="#65617D"/>
<path opacity="0.1" d="M42.8572 28.0197L39.4504 28.0535C39.4504 28.0535 38.9809 21.7543 38.7942 21.2594C38.6075 20.7644 38.5539 18.4046 39.1973 18.0728C39.8407 17.7409 41.9797 17.3637 41.9797 17.3637L43.4799 20.9795L43.5413 24.2241L42.8572 28.0197Z" fill="black"/>
<path opacity="0.8" d="M51.2845 17.7365L51.3129 17.0365C51.3151 16.9814 51.3061 16.9263 51.2862 16.8748C51.2664 16.8232 51.2363 16.7763 51.1976 16.7369C51.159 16.6975 51.1128 16.6665 51.0617 16.6457C51.0107 16.625 50.9559 16.6149 50.9008 16.6162C49.2118 16.6557 43.0656 16.8343 41.9797 17.3637C41.9797 17.3637 42.9904 26.1548 41.6527 28.2181L41.9614 35.2513L57.0232 34.4063L51.2845 17.7365Z" fill="#65617D"/>
<path opacity="0.1" d="M52.6689 6.68502C52.2523 6.63585 51.7564 6.58125 51.2016 6.5275L51.1858 7.36557L52.6556 7.3934L52.6689 6.68502Z" fill="black"/>
<path opacity="0.1" d="M38.127 7.24602L38.125 7.35213L39.5948 7.37996L39.6068 6.74232C39.0945 6.84778 38.5974 7.01699 38.127 7.24602V7.24602Z" fill="black"/>
<path opacity="0.8" d="M30.36 28.0041L32.5807 28.0786L37.3279 19.8025L38.1203 18.4209L37.599 14.8729L37.1313 15.7211L30.36 28.0041Z" fill="#DCE0ED"/>
<path opacity="0.8" d="M50.6405 18.1007L51.5289 19.4936L54.3324 15.8393L55.6156 14.1652L54.8833 13.1362L54.2949 13.8247L50.6405 18.1007Z" fill="#DCE0ED"/>
<path opacity="0.1" d="M54.2949 13.8248C54.2896 13.8954 54.2843 13.9681 54.278 14.0417L54.3324 15.8393L55.6157 14.1653L54.8832 13.1361L54.2949 13.8248Z" fill="black"/>
<path opacity="0.1" d="M37.1313 15.7211L37.3279 19.8025L38.1204 18.4209L37.599 14.8729L37.1313 15.7211Z" fill="black"/>
<path opacity="0.8" d="M56.8462 16.4822C56.8462 16.4822 58.0975 8.28889 54.1284 6.98514C54.0774 6.96874 54.0251 6.95691 53.9721 6.94979C53.0554 6.82118 44.5089 5.66878 40.0393 6.76134C40.0393 6.76134 36.9932 7.16232 36.995 8.80044L37.9572 28.8361L40.1455 28.8775L39.6762 15.6329C39.6762 15.6329 38.7396 9.84909 40.478 9.48887C42.2165 9.12865 50.1002 8.62271 52.8617 9.46129C52.8617 9.46129 54.8953 9.04114 54.4743 14.0457L54.5544 16.7337L56.8462 16.4822Z" fill="#DCE0ED"/>
<path opacity="0.8" d="M50.1373 18.7959C50.1232 18.5788 50.165 18.3617 50.2589 18.1655C50.3527 17.9693 50.4953 17.8006 50.673 17.6758C51.2942 17.2207 53.1994 16.2493 53.1994 16.2493L53.8109 16.3101L55.562 20.9135L55.2568 30.6134L51.8726 34.6527L50.1373 18.7959Z" fill="#65617D"/>
<path opacity="0.1" d="M50.1373 18.7959C50.1232 18.5788 50.165 18.3617 50.2589 18.1655C50.3527 17.9693 50.4953 17.8006 50.673 17.6758C51.2942 17.2207 53.1994 16.2493 53.1994 16.2493L53.8109 16.3101L55.562 20.9135L55.2568 30.6134L51.8726 34.6527L50.1373 18.7959Z" fill="black"/>
<path opacity="0.8" d="M63.141 29.2147L63.2632 19.2574C63.2632 19.2574 63.63 15.3985 61.3286 15.2894C61.3286 15.2894 55.897 15.2262 53.5239 15.9496C53.449 15.9722 53.38 16.0113 53.322 16.064C53.264 16.1166 53.2184 16.1816 53.1886 16.2542C53.1588 16.3267 53.1454 16.405 53.1495 16.4834C53.1536 16.5617 53.1751 16.6382 53.2123 16.7072C53.6666 17.536 54.4179 19.7212 54.6953 25.2953L54.5829 31.264L63.141 29.2147Z" fill="#65617D"/>
<path opacity="0.8" d="M51.5653 35.3593L61.4503 35.3155L61.4602 35.3157L66.3183 35.2948L65.8775 28.775L63.1811 28.8224L54.5713 30.5757L51.8725 34.6526L51.5653 35.3593Z" fill="#65617D"/>
<path opacity="0.1" d="M51.5653 35.3593L61.4503 35.3155L61.4602 35.3157L66.3183 35.2948L65.8775 28.775L63.1811 28.8224L54.5713 30.5757L51.8725 34.6526L51.5653 35.3593Z" fill="black"/>
<path opacity="0.8" d="M51.5653 35.3593L61.4503 35.3156L61.6951 30.9564L54.5713 30.5758L51.8725 34.6527L51.5653 35.3593Z" fill="#65617D"/>
<path opacity="0.1" d="M61.4601 35.3158L66.3183 35.2948L65.8775 28.7751C65.8775 28.7751 64.3129 31.178 61.6951 30.9564L61.4601 35.3158Z" fill="white"/>
<path opacity="0.8" d="M26.5088 39.922C26.6696 41.7925 27.998 41.5228 27.998 41.5228L28.2453 41.5049L30.6972 41.3282L30.6538 38.428C29.8241 38.3644 28.9898 38.3988 28.168 38.5303C27.2464 38.7035 26.4372 39.0911 26.5088 39.922Z" fill="#DCE0ED"/>
<path opacity="0.1" d="M26.5088 39.922C26.6696 41.7925 27.998 41.5228 27.998 41.5228L28.2453 41.5048C28.5186 41.0915 28.6635 40.6061 28.6617 40.1102C28.6929 39.5411 28.5176 38.9798 28.168 38.5303C27.2464 38.7035 26.4372 39.0911 26.5088 39.922Z" fill="black"/>
<path opacity="0.8" d="M60.6709 21.5835C60.6138 24.6132 62.3808 27.1035 64.6176 27.1459C66.8543 27.1882 68.7139 24.7666 68.7709 21.7369C68.828 18.7073 67.061 16.217 64.8242 16.1746C62.5875 16.1323 60.728 18.5539 60.6709 21.5835ZM62.1992 21.9729C62.2406 19.7752 63.656 18.0199 65.3606 18.0522C67.0653 18.0845 68.4136 19.8922 68.3722 22.0898C68.3308 24.2874 66.9154 26.0427 65.2107 26.0104C63.5061 25.9782 62.1578 24.1705 62.1992 21.9729V21.9729Z" fill="#636780"/>
<path opacity="0.8" d="M64.4931 23.3432L62.5636 25.174L61.9092 23.4908L64.683 21.9381L64.4931 23.3432Z" fill="#636780"/>
<path opacity="0.8" d="M62.0486 4.81453L60.3954 4.98465L59.7699 5.70197L60.6188 9.90501L62.4628 16.6856L63.6688 21.3397L64.5258 24.1682L65.0353 27.8997L65.5669 30.4684L67.2733 32.2452L70.8885 28.1268L71.4946 26.7426L72.9398 23.9206L69.377 22.1666L65.4413 21.7432L63.6759 16.9413L62.2727 11.3901L62.0486 4.81453Z" fill="#6C63FF"/>
<path opacity="0.8" d="M95.0365 25.3958L96.8505 43.5803L69.7304 41.9199L73.0337 33.0713L78.3237 29.7642L66.3658 29.7344L66.3943 24.7551L71.2479 23.7987L80.9958 23.1971L88.3181 23.0081L95.2646 25.433" fill="#65617D"/>
<path opacity="0.1" d="M95.0365 25.3958L96.8505 43.5803L69.7304 41.9199L73.0337 33.0713L78.3237 29.7642L66.3658 29.7344L66.3943 24.7551L71.2479 23.7987L80.9958 23.1971L88.3181 23.0081L95.2646 25.433" fill="black"/>
<path opacity="0.8" d="M57.615 42.7756C57.53 47.2842 58.9466 51.4168 63.1005 51.046C68.331 51.0326 68.8086 47.4978 68.8935 42.9892C68.9784 38.4806 66.5168 35.0774 63.4024 35.0184C60.2879 34.9595 57.6999 38.267 57.615 42.7756Z" fill="#636780"/>
<path opacity="0.1" d="M57.5822 42.7827C57.6479 39.292 59.2142 36.5219 61.3634 35.476C64.0872 36.049 66.1295 39.2417 66.052 43.3551C65.9824 47.05 65.6484 50.0903 62.6516 51.075C58.819 51.1405 57.5002 47.1372 57.5822 42.7827Z" fill="black"/>
<path opacity="0.8" d="M52.4214 35.5986L53.9811 37.4598L51.1208 36.9114L49.0129 34.8943L47.1721 31.0214L44.5073 29.3136L37.8813 30.0894L31.7605 30.2061L29.5404 28.1525L32.0658 27.8566L34.6177 27.847L41.0267 27.8229L48.6542 27.7638L50.1408 31.9791L51.2751 34.8789L52.4214 35.5986Z" fill="#6C63FF"/>
<path opacity="0.8" d="M30.3459 42.6484C30.4725 42.8474 34.7392 43.5837 34.7392 43.5837L46.5212 45.9691L66.8318 46.6486L69.254 44.6629L70.502 44.9097L70.5528 44.9195L87.2226 48.2142L87.4958 48.18L92.0673 47.615L115.944 44.6626L115.742 41.1912L115.623 39.1427L115.377 34.8892L115.168 33.7707L113.052 33.536L112.063 33.4258L96.6346 31.7115L94.6176 31.4875L93.4869 31.3619L82.4754 29.6467L66.3662 29.7348L66.3943 24.7552L60.3954 4.98457C58.987 5.1869 59.0015 6.13759 59.0015 6.13759L64.0744 24.7437L63.926 36.1095C52.6284 37.0376 52.3113 34.5676 50.5114 35.364L48.4859 28.4133L29.5407 28.1528C28.7719 29.0552 30.3459 42.6484 30.3459 42.6484Z" fill="#65617D"/>
<path opacity="0.8" d="M77.5397 33.2221L71.2862 46.0447L69.2486 46.6609L68.7986 44.556L71.1874 37.4263L73.5846 33.311L77.5397 33.2221Z" fill="#65617D"/>
<path opacity="0.15" d="M77.5397 33.2221L71.2862 46.0447L69.2486 46.6609L68.7986 44.556L71.1874 37.4263L73.5846 33.311L77.5397 33.2221Z" fill="black"/>
<path opacity="0.8" d="M92.0666 47.7485C92.1953 40.9115 87.4267 35.2768 81.4156 35.1629C75.4045 35.0491 70.4272 40.4993 70.2984 47.3363C70.1697 54.1733 74.9383 59.8081 80.9494 59.9219C86.9605 60.0357 91.9378 54.5855 92.0666 47.7485Z" fill="#636780"/>
<path opacity="0.1" d="M77.5192 35.8617C83.2075 36.3671 87.6177 41.8316 87.4938 48.41C87.3939 53.7126 84.3773 58.1803 80.2241 59.8658C74.5358 59.3603 70.1256 53.8959 70.2495 47.3174C70.3494 42.0148 73.366 37.5472 77.5192 35.8617Z" fill="black"/>
<path opacity="0.8" d="M110.765 26.4476L111.256 29.0044L112.758 36.8377L119.859 36.2842C119.859 36.2842 120.308 34.9826 119.207 34.4703C119.207 34.4703 118.926 30.0294 117.643 28.6084C117.505 28.4466 117.331 28.3199 117.135 28.2391L110.765 26.4476Z" fill="#65617D"/>
<path opacity="0.1" d="M111.256 29.0045L112.758 36.8377L119.859 36.2842C119.859 36.2842 120.308 34.9826 119.207 34.4703C119.207 34.4703 118.926 30.0294 117.643 28.6084L111.256 29.0045Z" fill="white"/>
<path opacity="0.8" d="M94.7808 26.8329C93.8376 28.3542 95.7908 42.5776 95.7908 42.5776L113.254 40.0247L112.868 27.601C112.55 25.3668 111.249 25.0808 111.249 25.0808C105.167 21.8529 91.0692 20.9304 91.0692 20.9304C78.1916 21.1779 66.3943 24.7552 66.3943 24.7552C81.0689 22.7725 94.7808 26.8329 94.7808 26.8329Z" fill="#65617D"/>
<path opacity="0.1" d="M95.7908 42.5776L113.254 40.0247L112.868 27.601C112.55 25.3668 111.249 25.0808 111.249 25.0808C111.249 25.0808 98.5659 23.6277 94.7807 26.8329C93.8376 28.3542 95.7908 42.5776 95.7908 42.5776Z" fill="black"/>
<path opacity="0.8" d="M97.6466 41.7934L112.249 39.6096L111.93 29.01C111.665 27.1039 110.577 26.8603 110.577 26.8603C110.577 26.8603 99.973 25.6247 96.8072 28.3605C96.018 29.6587 97.6466 41.7934 97.6466 41.7934Z" fill="#65617D"/>
<path opacity="0.1" d="M101.001 33.1423C101.038 31.1346 100.177 29.4902 99.0766 29.4693C97.9763 29.4485 97.0536 31.0592 97.0158 33.0669C96.978 35.0746 97.8393 36.719 98.9397 36.7398C100.04 36.7607 100.963 35.15 101.001 33.1423Z" fill="black"/>
<path opacity="0.8" d="M101.002 33.0441C101.04 31.0364 100.179 29.3919 99.0785 29.3711C97.9781 29.3503 97.0555 30.9609 97.0177 32.9686C96.9798 34.9763 97.8412 36.6207 98.9415 36.6416C100.042 36.6624 100.965 35.0518 101.002 33.0441Z" fill="#DCE0ED"/>
<path opacity="0.8" d="M98.7993 30.3159C98.7993 30.3159 99.6134 30.4624 99.1684 31.5351C98.9332 32.056 98.7585 32.6023 98.6476 33.1633C98.6476 33.1633 97.8231 33.5736 97.8823 32.1659C97.9414 30.7583 98.7993 30.3159 98.7993 30.3159Z" fill="#F0F0F4"/>
<path opacity="0.1" d="M111.577 31.9011C111.613 30.025 110.808 28.4884 109.78 28.469C108.751 28.4495 107.889 29.9545 107.854 31.8306C107.819 33.7066 108.623 35.2432 109.652 35.2627C110.68 35.2822 111.542 33.7771 111.577 31.9011Z" fill="black"/>
<path opacity="0.8" d="M111.579 31.8028C111.614 29.9268 110.81 28.3902 109.781 28.3707C108.753 28.3512 107.891 29.8563 107.856 31.7323C107.82 33.6083 108.625 35.145 109.653 35.1644C110.682 35.1839 111.544 33.6789 111.579 31.8028Z" fill="#DCE0ED"/>
<path opacity="0.8" d="M109.507 29.0771C109.507 29.0771 110.321 29.2236 109.876 30.2963C109.641 30.8173 109.466 31.3636 109.355 31.9245C109.355 31.9245 108.531 32.3348 108.59 30.9272C108.649 29.5196 109.507 29.0771 109.507 29.0771Z" fill="#F0F0F4"/>
<path opacity="0.1" d="M101.353 30.069C101.458 31.4146 101.924 41.3826 101.924 41.3826L103.036 41.2179L103.654 41.1274L104.478 41.0054L104.577 40.9906L107.821 40.5115L107.381 29.9385C107.367 29.5989 107.223 29.2778 106.979 29.0417C106.735 28.8057 106.41 28.6727 106.071 28.6704C106.039 28.6707 106.006 28.6711 105.972 28.6734C105.748 28.6888 105.507 28.7078 105.256 28.7306C105.15 28.7404 105.043 28.7502 104.934 28.7618C104.622 28.7933 104.301 28.8324 103.985 28.8785C103.824 28.903 103.666 28.9285 103.51 28.956C103.245 29.0041 102.989 29.0572 102.753 29.1186C102.592 29.1598 102.439 29.2051 102.299 29.2545C101.711 29.4556 101.325 29.7216 101.353 30.069Z" fill="black"/>
<path opacity="0.8" d="M106.071 28.6704L106.481 40.5519L106.841 40.5263L106.436 28.7244C106.317 28.6895 106.195 28.6713 106.071 28.6704Z" fill="#65617D"/>
<path opacity="0.8" d="M104.934 28.7618L105.301 40.7586L105.856 40.7691L105.256 28.7306C105.15 28.7404 105.043 28.7502 104.934 28.7618Z" fill="#65617D"/>
<path opacity="0.8" d="M103.51 28.956L104.218 41.0005L104.577 41.0073L104.577 40.9906L103.985 28.8786C103.824 28.903 103.666 28.9285 103.51 28.956Z" fill="#65617D"/>
<path opacity="0.8" d="M102.299 29.2545L103.036 41.2179L103.037 41.2406L103.659 41.1865L103.654 41.1274L102.753 29.1186C102.592 29.1598 102.439 29.2051 102.299 29.2545Z" fill="#65617D"/>
<path opacity="0.1" d="M115.41 38.7553C115.41 38.7553 116.727 32.5638 113.99 32.1925C111.252 31.8212 102.225 32.3137 102.446 34.8733C102.668 37.4329 102.889 41.3193 102.889 41.3193L104.758 40.937C104.758 40.937 103.472 35.0647 105.656 34.8849C107.841 34.7052 113.192 34.1922 113.192 34.1922C113.192 34.1922 114.642 33.974 113.713 39.0918L115.41 38.7553Z" fill="black"/>
<path opacity="0.8" d="M115.399 39.3449C115.399 39.3449 116.723 32.7603 113.986 32.389C111.248 32.0177 102.221 32.5102 102.443 35.0698C102.664 37.6294 102.885 41.5159 102.885 41.5159L104.754 41.1336C104.754 41.1336 103.468 35.2612 105.653 35.0815C107.837 34.9017 113.189 34.3887 113.189 34.3887C113.189 34.3887 114.631 34.5635 113.702 39.6813L115.399 39.3449Z" fill="#DCE0ED"/>
<path opacity="0.8" d="M66.8317 46.6486L69.2487 46.6609C71.1592 38.9002 74.1577 34.1085 74.1577 34.1085C75.1474 33.6024 85.8588 33.8711 85.8588 33.8711C86.9662 34.0887 87.1936 37.6312 87.1936 37.6312C87.1936 37.6312 86.2306 38.4317 87.1349 38.9737C87.5391 39.2153 88.8826 39.2849 90.4333 39.2347C92.3586 39.1709 94.604 38.9205 95.7681 38.5799C97.8714 37.9642 96.2285 36.7212 96.2285 36.7212C96.2285 36.7212 95.9419 36.3226 95.7867 34.1574C95.676 32.893 95.2921 31.6679 94.6614 30.5674C94.5741 30.4154 94.5188 30.3327 94.5188 30.3327C94.4107 30.2258 94.2823 30.1418 94.1412 30.0858C91.394 28.874 77.8013 29.7213 77.8013 29.7213L72.7416 31.2314C72.6014 31.2848 72.3801 31.6364 72.1048 32.1993C70.4511 35.5873 66.8317 46.6486 66.8317 46.6486Z" fill="#65617D"/>
<path opacity="0.1" d="M66.8317 46.6486L69.2487 46.6609C71.1592 38.9002 74.1577 34.1085 74.1577 34.1085C75.1474 33.6024 85.8588 33.8711 85.8588 33.8711C86.9662 34.0887 87.1936 37.6312 87.1936 37.6312C87.1936 37.6312 86.2306 38.4317 87.1349 38.9737C87.5391 39.2153 88.8826 39.2849 90.4333 39.2347C92.3586 39.1709 94.604 38.9205 95.7681 38.5799C97.8714 37.9642 96.2285 36.7212 96.2285 36.7212C96.2285 36.7212 95.9419 36.3226 95.7867 34.1574C95.676 32.893 95.2921 31.6679 94.6614 30.5674C94.5741 30.4154 94.5188 30.3327 94.5188 30.3327C94.4107 30.2258 94.2823 30.1418 94.1412 30.0858C91.394 28.874 77.8013 29.7213 77.8013 29.7213L72.7416 31.2314C72.6014 31.2848 72.3801 31.6364 72.1048 32.1993C70.4511 35.5873 66.8317 46.6486 66.8317 46.6486Z" fill="black"/>
<path opacity="0.8" d="M72.1048 32.1993C76.7824 30.4785 89.5601 31.6807 89.5601 31.6807C90.9411 30.5412 93.4989 30.513 94.6614 30.5674C94.5741 30.4154 94.5188 30.3327 94.5188 30.3327C94.4107 30.2258 94.2823 30.1418 94.1412 30.0858C91.394 28.874 77.8014 29.7213 77.8014 29.7213L72.7416 31.2315C72.6014 31.2848 72.3801 31.6364 72.1048 32.1993Z" fill="#65617D"/>
<path opacity="0.8" d="M88.7993 32.1577C89.0741 33.1782 90.2058 37.2627 90.2058 37.2627C90.3193 37.9151 90.3953 38.5736 90.4333 39.2347C92.3586 39.1709 94.6041 38.9206 95.7681 38.5799C97.8714 37.9642 96.2285 36.7212 96.2285 36.7212C96.2285 36.7212 95.942 36.3227 95.7867 34.1575C95.6684 32.8006 95.2341 31.4906 94.5188 30.3328C94.4107 30.2258 94.2823 30.1419 94.1412 30.0858C92.3174 30.4808 88.5914 31.3852 88.7993 32.1577Z" fill="#65617D"/>
<path opacity="0.1" d="M88.7993 32.1577C89.0741 33.1782 90.2058 37.2627 90.2058 37.2627C90.3193 37.9151 90.3953 38.5736 90.4333 39.2347C92.3586 39.1709 94.6041 38.9206 95.7681 38.5799C97.8714 37.9642 96.2285 36.7212 96.2285 36.7212C96.2285 36.7212 95.942 36.3227 95.7867 34.1575C95.6684 32.8006 95.2341 31.4906 94.5188 30.3328C94.4107 30.2258 94.2823 30.1419 94.1412 30.0858C92.3174 30.4808 88.5914 31.3852 88.7993 32.1577Z" fill="white"/>
<path opacity="0.8" d="M60.3954 4.98459L66.3943 24.7552L91.4086 21.1255L88.1037 9.24415C88.1037 9.24415 87.5911 6.53161 86.2966 6.31052C86.2966 6.31052 66.3 2.4427 60.3954 4.98459ZM63.1796 8.08415C62.3722 5.41516 74.2565 6.74593 74.2565 6.74593C75.8565 6.62192 77.785 6.75673 79.5776 6.97447C80.2338 7.05471 80.8711 7.1464 81.4682 7.24027C82.8003 7.45026 83.9311 7.67414 84.6077 7.81571C85.0383 7.90544 85.2852 7.96221 85.2852 7.96221C87.6475 8.74409 88.8097 18.5946 88.8097 18.5946C88.9862 19.6299 87.7656 19.3857 87.7656 19.3857L87.6862 19.3871L86.5732 19.4093L83.255 19.4772L67.0756 19.8047C66.1221 19.6884 65.9965 18.5557 65.9965 18.5557C65.4973 17.7354 63.1796 8.08415 63.1796 8.08415H63.1796Z" fill="#65617D"/>
<path opacity="0.8" d="M87.6862 19.3871L87.7656 19.3857C87.7656 19.3857 88.9863 19.6299 88.8097 18.5946C88.8097 18.5946 87.6475 8.74406 85.2853 7.96219C85.2853 7.96219 85.0384 7.90542 84.6078 7.81569C85.4392 9.51997 88.0984 15.3524 87.6862 19.3871Z" fill="#65617D"/>
<path opacity="0.1" d="M87.6862 19.3871L87.7656 19.3857C87.7656 19.3857 88.9863 19.6299 88.8097 18.5946C88.8097 18.5946 87.6475 8.74406 85.2853 7.96219C85.2853 7.96219 85.0384 7.90542 84.6078 7.81569C85.4392 9.51997 88.0984 15.3524 87.6862 19.3871Z" fill="black"/>
<path opacity="0.1" d="M85.0349 43.5779C85.1719 43.8454 85.3821 44.0683 85.6408 44.2203C85.8996 44.3723 86.1962 44.4471 86.4959 44.4361L86.9951 44.4239L91.708 44.3097L93.4065 44.2682L94.9767 44.1672L115.742 41.1912L115.623 39.1427L113.236 39.4395L112.248 39.5623L97.5924 41.3822L95.6637 41.6218L94.7284 41.7378L90.7763 41.6345L86.4979 41.522C86.2816 41.5157 86.0662 41.5531 85.8646 41.6319C85.4945 41.7715 85.1923 42.0488 85.0207 42.4061C84.931 42.5888 84.8855 42.7901 84.888 42.9937C84.8905 43.1973 84.9408 43.3975 85.0349 43.5779V43.5779Z" fill="black"/>
<path opacity="0.8" d="M85.0312 43.7744C85.1682 44.0419 85.3784 44.2648 85.6371 44.4168C85.8959 44.5688 86.1925 44.6436 86.4922 44.6326L93.4028 44.4647L94.973 44.3637L117.118 41.1898L118.858 40.9406L119.807 40.8043C121.676 40.4465 121.155 38.5693 121.155 38.5693C121.041 37.715 117.855 36.8684 116.81 36.882C116.107 36.8903 115.988 37.9741 115.987 38.6847C115.986 39.0326 116.012 39.2906 116.012 39.2906L114.977 39.4194L94.7247 41.9343L86.4942 41.7185C86.1891 41.7072 85.8874 41.7847 85.6253 41.9415C85.3631 42.0984 85.1519 42.328 85.017 42.6026C84.9273 42.7853 84.8818 42.9866 84.8843 43.1902C84.8868 43.3938 84.9371 43.594 85.0312 43.7744V43.7744Z" fill="#DCE0ED"/>
<path opacity="0.1" d="M118.289 38.0891C118.289 38.0891 117.387 39.1532 116.012 39.291C116.012 39.291 116.59 38.0897 118.289 38.0891Z" fill="black"/>
<path opacity="0.1" d="M118.461 41.1392C118.461 41.1392 121.369 41.1288 121.339 42.7008C121.31 44.2728 119.476 44.5001 119.476 44.5001L93.4153 49.0191L86.0314 49.0103C86.0314 49.0103 83.49 46.8982 86.1855 46.032L93.6286 46.3695L118.472 42.2861C118.472 42.2861 117.835 41.3895 118.461 41.1392Z" fill="black"/>
<path opacity="0.8" d="M86.0277 49.2068L93.4113 49.2159L116.583 45.1975L118.279 44.9033L119.472 44.6969C119.472 44.6969 121.306 44.4693 121.335 42.8973C121.357 41.7693 119.864 41.456 119.02 41.3693C118.688 41.3355 118.457 41.336 118.457 41.336C117.831 41.5856 118.468 42.4822 118.468 42.4822L117.564 42.6312L93.6249 46.5663L86.1818 46.2288C83.4866 47.0947 86.0277 49.2068 86.0277 49.2068Z" fill="#DCE0ED"/>
<path opacity="0.8" d="M116.296 39.8205L114.774 39.1037L113.991 39.0561L113.932 45.6728L116.358 45.2274L117.383 44.5915L117.925 41.8498C117.925 41.8498 117.75 40.6998 117.654 40.5997C117.558 40.4996 116.296 39.8205 116.296 39.8205Z" fill="#DCE0ED"/>
<path opacity="0.1" d="M116.296 39.8205L114.774 39.1037L113.991 39.0561L113.932 45.6728L116.358 45.2274L117.383 44.5915L117.925 41.8498C117.925 41.8498 117.75 40.6998 117.654 40.5997C117.558 40.4996 116.296 39.8205 116.296 39.8205Z" fill="black"/>
<path opacity="0.1" d="M116.583 45.1976C116.564 45.2198 116.554 45.2314 116.554 45.2314L118.259 44.9354C118.266 44.9247 118.273 44.914 118.279 44.9033C119.202 43.4731 119.3 42.2995 119.02 41.3693C118.688 41.3355 118.457 41.336 118.457 41.336C117.831 41.5856 118.468 42.4823 118.468 42.4823L117.564 42.6312C117.6 43.9273 116.753 44.9963 116.583 45.1976Z" fill="black"/>
<path opacity="0.1" d="M114.187 39.0594C114.472 39.1759 114.735 39.2959 114.977 39.4194C116.065 39.9707 116.733 40.579 117.118 41.1898L118.858 40.9406C118.135 39.3583 116.352 38.609 116.352 38.609L115.987 38.6847L114.187 39.0594Z" fill="black"/>
<path opacity="0.8" d="M116.156 38.6057C116.156 38.6057 120.889 40.5955 118.063 44.932L116.358 45.2274C116.358 45.2274 119.795 41.4266 113.991 39.0561L116.156 38.6057Z" fill="#DCE0ED"/>
<path opacity="0.8" d="M104.75 40.5192L102.987 40.4202L103.147 47.5326L105.999 47.0624L107.218 46.4957L107.8 45.0981L108.218 43.6972L107.295 42.4021L106.231 41.6611L104.75 40.5192Z" fill="#DCE0ED"/>
<path opacity="0.1" d="M104.75 40.5192L102.987 40.4202L103.147 47.5326L105.999 47.0624L107.218 46.4957L107.8 45.0981L108.218 43.6972L107.295 42.4021L106.231 41.6611L104.75 40.5192Z" fill="black"/>
<path opacity="0.8" d="M105.726 44.207C105.741 43.4111 105.373 42.7588 104.904 42.7499C104.435 42.741 104.042 43.3789 104.027 44.1748C104.012 44.9706 104.38 45.623 104.849 45.6319C105.318 45.6408 105.711 45.0028 105.726 44.207Z" fill="#DCE0ED"/>
<path opacity="0.8" d="M112.939 46.3005C112.998 46.3261 113.051 46.364 113.095 46.4116C113.138 46.4592 113.172 46.5154 113.192 46.5766C113.213 46.6379 113.221 46.7028 113.215 46.7672C113.209 46.8316 113.189 46.894 113.158 46.9504C112.959 47.3078 112.719 47.7705 112.738 47.8944C112.771 48.1039 112.309 47.9231 112.249 47.8728C112.188 47.8225 111.342 47.8557 111.304 47.2775C111.299 47.1031 111.34 46.9306 111.423 46.7769C111.505 46.6233 111.626 46.494 111.774 46.4019L111.602 45.1332L112.767 45.057L112.733 46.2112L112.939 46.3005Z" fill="#636780"/>
<path opacity="0.1" d="M112.939 46.3005C112.998 46.3261 113.051 46.364 113.095 46.4116C113.138 46.4592 113.172 46.5154 113.192 46.5766C113.213 46.6379 113.221 46.7028 113.215 46.7672C113.209 46.8316 113.189 46.894 113.158 46.9504C112.959 47.3078 112.719 47.7705 112.738 47.8944C112.771 48.1039 112.309 47.9231 112.249 47.8728C112.188 47.8225 111.342 47.8557 111.304 47.2775C111.299 47.1031 111.34 46.9306 111.423 46.7769C111.505 46.6233 111.626 46.494 111.774 46.4019L111.602 45.1332L112.767 45.057L112.733 46.2112L112.939 46.3005Z" fill="black"/>
<path opacity="0.1" d="M112.622 46.2705C112.622 46.2705 112.204 47.614 112.375 47.6664C112.545 47.7187 112.622 46.2705 112.622 46.2705Z" fill="black"/>
<path opacity="0.1" d="M112.187 45.9428C112.187 45.9428 111.769 47.2863 111.94 47.3387C112.111 47.3911 112.187 45.9428 112.187 45.9428Z" fill="black"/>
<path opacity="0.8" d="M107.568 41.7844L108.145 45.8584C108.145 45.8584 108.956 45.7627 109.403 45.6749C109.501 45.6633 109.597 45.6356 109.686 45.5928C109.709 45.5706 109.757 45.5735 109.82 45.5874L109.821 45.5875C110.038 45.6358 110.423 45.8239 110.501 45.6731C110.507 45.6614 110.514 45.6506 110.523 45.641L110.524 45.6401C110.602 45.558 110.75 45.6218 110.894 45.6461C110.97 45.6669 111.052 45.6575 111.123 45.62C111.245 45.5417 111.486 45.676 111.685 45.723C111.811 45.7529 111.92 45.7491 111.972 45.6361C111.992 45.5995 112.02 45.5681 112.055 45.5445C112.089 45.5209 112.128 45.5057 112.17 45.5002L112.171 45.5003C112.36 45.4567 112.623 45.4941 112.775 45.4645C112.835 45.4539 112.877 45.432 112.891 45.391C112.922 45.3032 113.092 45.2641 113.273 45.2331C113.492 45.195 113.728 45.169 113.747 45.08C113.752 45.0506 113.774 45.0382 113.806 45.0378C113.928 45.0584 114.047 45.0902 114.162 45.133L114.163 45.1331C114.261 45.1595 114.342 45.162 114.367 45.0917C114.394 45.0146 114.507 45.0255 114.634 45.0594C114.738 45.0869 114.852 45.1294 114.939 45.1517C115.018 45.1709 115.075 45.1749 115.086 45.1378C115.121 45.0077 115.539 45.3105 115.642 45.05C115.745 44.7895 117.117 43.0798 115.428 40.7873C115.428 40.7873 114.959 40.8108 114.601 40.8689C114.481 40.8828 114.365 40.9134 114.254 40.9596C114.252 40.9596 114.251 40.9605 114.249 40.9615C114.043 41.015 113.83 41.0355 113.618 41.0223C113.497 41.0215 113.376 41.0477 113.266 41.0992C113.223 41.122 113.188 41.1582 113.166 41.2024C113.109 41.3262 112.983 41.3493 112.846 41.3389C112.661 41.3246 112.457 41.2499 112.38 41.2858C112.378 41.287 112.376 41.2879 112.374 41.2887C112.235 41.345 111.724 41.2783 111.635 41.3621C111.632 41.3645 111.63 41.3671 111.628 41.3699C111.59 41.4242 111.39 41.3624 111.186 41.331L111.185 41.331C111.117 41.3109 111.045 41.3055 110.975 41.3152C110.905 41.3249 110.838 41.3494 110.778 41.3872C110.687 41.457 110.572 41.4887 110.458 41.4755C110.319 41.4626 110.18 41.4656 110.042 41.4843C110.01 41.4924 109.981 41.51 109.959 41.5348C109.873 41.6364 109.675 41.6189 109.497 41.6244C109.406 41.6188 109.315 41.64 109.236 41.6853C109.208 41.7047 109.175 41.7175 109.141 41.7228C108.878 41.742 108.613 41.7237 108.354 41.6686L107.568 41.7844Z" fill="#636780"/>
<path opacity="0.1" d="M114.634 45.0594C114.738 45.0869 114.852 45.1294 114.939 45.1517C116.305 43.1135 115.217 41.5253 114.601 40.8689C114.481 40.8828 114.365 40.9133 114.254 40.9596C115.556 42.5264 114.902 44.4404 114.634 45.0594Z" fill="black"/>
<path opacity="0.1" d="M113.806 45.0378C113.928 45.0583 114.047 45.0902 114.162 45.133L114.163 45.133C115.337 43.1414 114.197 41.6141 113.618 41.0223C113.497 41.0214 113.376 41.0477 113.266 41.0991C114.511 42.5164 114.101 44.2424 113.806 45.0378Z" fill="black"/>
<path opacity="0.1" d="M112.775 45.4645C112.835 45.4538 112.877 45.432 112.891 45.391C112.922 45.3032 113.092 45.2641 113.273 45.2331C114.302 43.4285 113.438 42.0115 112.846 41.3388C112.661 41.3245 112.457 41.2499 112.38 41.2858C112.378 41.2869 112.376 41.2879 112.373 41.2886C113.749 42.8951 113.033 44.8816 112.775 45.4645Z" fill="black"/>
<path opacity="0.1" d="M111.685 45.723C111.811 45.7529 111.92 45.7491 111.972 45.636C111.992 45.5994 112.02 45.5681 112.055 45.5445C112.089 45.5209 112.128 45.5057 112.17 45.5002L112.171 45.5002C113.371 43.4914 112.215 41.951 111.635 41.3621C111.632 41.3644 111.63 41.367 111.628 41.3699C111.59 41.4242 111.39 41.3624 111.186 41.331C112.804 43.0325 111.914 45.2349 111.685 45.723Z" fill="black"/>
<path opacity="0.1" d="M110.524 45.6401C110.602 45.558 110.75 45.6217 110.894 45.6461C112.142 43.6529 111.058 42.109 110.458 41.4755C110.319 41.4626 110.18 41.4656 110.042 41.4843C111.426 43.0359 110.806 44.9672 110.524 45.6401Z" fill="black"/>
<path opacity="0.1" d="M109.403 45.6749C109.501 45.6633 109.597 45.6356 109.686 45.5927C109.709 45.5706 109.757 45.5734 109.82 45.5874L109.821 45.5874C110.929 43.7665 110.099 42.3277 109.497 41.6243C109.406 41.6188 109.315 41.6399 109.236 41.6852C109.208 41.7046 109.175 41.7174 109.141 41.7227C110.286 43.2629 109.661 45.0792 109.403 45.6749Z" fill="black"/>
<path opacity="0.8" d="M83.0087 48.1668C83.0905 43.8259 80.7732 40.2617 77.8329 40.206C74.8927 40.1503 72.4428 43.6242 72.3611 47.9652C72.2793 52.3061 74.5966 55.8703 77.5368 55.926C80.4771 55.9817 82.9269 52.5078 83.0087 48.1668Z" fill="#636780"/>
<path opacity="0.1" d="M81.7327 48.2573C81.799 44.7393 80.1199 41.8546 77.9823 41.8141C75.8448 41.7737 74.0582 44.5927 73.992 48.1107C73.9257 51.6287 75.6048 54.5134 77.7424 54.5539C79.8799 54.5944 81.6665 51.7753 81.7327 48.2573Z" fill="black"/>
<path opacity="0.8" d="M81.7364 48.0608C81.8027 44.5428 80.1236 41.6581 77.986 41.6177C75.8485 41.5772 74.0619 44.3962 73.9957 47.9142C73.9294 51.4322 75.6085 54.3169 77.7461 54.3574C79.8836 54.3979 81.6702 51.5788 81.7364 48.0608Z" fill="#F0F0F4"/>
<path opacity="0.8" d="M77.7016 43.709C77.7098 43.2749 77.5117 42.9191 77.2592 42.9144C77.0066 42.9096 76.7953 43.2576 76.7871 43.6917C76.7789 44.1258 76.977 44.4816 77.2295 44.4864C77.4821 44.4912 77.6934 44.1431 77.7016 43.709Z" fill="#636780"/>
<path opacity="0.8" d="M75.743 50.5518C75.7512 50.1177 75.5531 49.762 75.3006 49.7572C75.048 49.7524 74.8367 50.1004 74.8285 50.5345C74.8203 50.9686 75.0184 51.3244 75.2709 51.3292C75.5235 51.334 75.7348 50.9859 75.743 50.5518Z" fill="#636780"/>
<path opacity="0.8" d="M80.7366 47.3703C80.7447 46.9362 80.5466 46.5804 80.2941 46.5756C80.0416 46.5708 79.8302 46.9189 79.8221 47.353C79.8139 47.787 80.012 48.1428 80.2645 48.1476C80.517 48.1524 80.7284 47.8044 80.7366 47.3703Z" fill="#636780"/>
<path opacity="0.8" d="M79.3111 51.9299C79.3193 51.4958 79.1212 51.14 78.8687 51.1352C78.6161 51.1305 78.4048 51.4785 78.3966 51.9126C78.3884 52.3467 78.5865 52.7025 78.839 52.7073C79.0916 52.712 79.3029 52.364 79.3111 51.9299Z" fill="#636780"/>
<path opacity="0.8" d="M38.9937 32.7871C38.9937 32.7871 34.9798 42.9327 35.1638 43.575C35.1638 43.575 33.5285 44.5269 33.1412 44.2739C32.7539 44.0208 33.182 39.5078 33.182 39.5078L33.9918 35.5426L34.8691 33.2004L38.9937 32.7871Z" fill="#65617D"/>
<path opacity="0.15" d="M38.9937 32.7871C38.9937 32.7871 34.9798 42.9327 35.1638 43.575C35.1638 43.575 33.5285 44.5269 33.1412 44.2739C32.7539 44.0208 33.182 39.5078 33.182 39.5078L33.9918 35.5426L34.8691 33.2004L38.9937 32.7871Z" fill="black"/>
<path opacity="0.8" d="M75.17 46.282C75.1781 45.8479 74.98 45.4921 74.7275 45.4873C74.475 45.4826 74.2636 45.8306 74.2554 46.2647C74.2473 46.6988 74.4454 47.0546 74.6979 47.0593C74.9504 47.0641 75.1618 46.7161 75.17 46.282Z" fill="#636780"/>
<path opacity="0.8" d="M78.4983 48.2452C78.5177 47.2142 77.9339 46.3671 77.1943 46.3531C76.4548 46.3391 75.8395 47.1635 75.8201 48.1945C75.8006 49.2255 76.3844 50.0726 77.124 50.0866C77.8636 50.1006 78.4789 49.2762 78.4983 48.2452Z" fill="#636780"/>
<path opacity="0.8" d="M34.4741 46.3631C34.3627 52.2777 36.221 57.699 41.6702 57.2125C48.5319 57.195 49.1583 52.5579 49.2698 46.6433C49.3812 40.7288 46.152 36.2643 42.0663 36.187C37.9806 36.1096 34.5855 40.4486 34.4741 46.3631Z" fill="#636780"/>
<path opacity="0.1" d="M34.4311 46.3723C34.5174 41.7932 36.5721 38.1592 39.3915 36.7872C42.9646 37.5389 45.6438 41.7272 45.5422 47.1233C45.4509 51.9704 45.0127 55.9587 41.0814 57.2504C36.0537 57.3364 34.3235 52.0847 34.4311 46.3723Z" fill="black"/>
<path opacity="0.1" d="M31.6307 43.803C31.6307 43.803 32.5949 44.6567 33.1449 44.0774C33.1449 44.0774 34.6675 33.4914 36.3342 33.4739L42.0672 33.5333C42.0672 33.5333 42.7475 33.841 43.0174 35.1238L46.5249 45.7726L66.8354 46.4521L68.4479 43.2225L51.6427 42.9534L51.6409 42.9455C51.5559 42.6176 48.938 32.5115 47.0744 31.225C47.0734 31.224 47.0724 31.224 47.0715 31.223C47.0084 31.1785 46.9395 31.1431 46.8666 31.1179C46.8666 31.1179 39.8783 30.0519 37.5636 30.6469C37.5636 30.6469 35.1529 31.1418 34.5511 31.8675C34.5493 31.8694 34.5476 31.8713 34.5461 31.8733C34.4661 31.9544 33.5375 32.9639 33.2005 35.9208L31.6307 43.803Z" fill="black"/>
<path opacity="0.8" d="M31.6271 43.9995C31.6271 43.9995 32.5912 44.8532 33.1412 44.2739C33.1412 44.2739 34.6638 33.688 36.3305 33.6704L42.0635 33.7298C42.0635 33.7298 42.7438 34.0375 43.0137 35.3204L46.5212 45.9691L66.8317 46.6486L68.4442 43.419L51.639 43.1499L51.6372 43.142C51.5522 42.8141 48.9343 32.708 47.0707 31.4216C47.0697 31.4205 47.0687 31.4205 47.0678 31.4195C47.0048 31.375 46.9358 31.3396 46.8629 31.3144C46.8629 31.3144 39.8746 30.2484 37.56 30.8434C37.56 30.8434 35.1492 31.3383 34.5474 32.064C34.5456 32.0659 34.5439 32.0678 34.5424 32.0698C34.4624 32.1509 33.5338 33.1604 33.1968 36.1173L31.6271 43.9995Z" fill="#65617D"/>
<path opacity="0.1" d="M31.6271 43.9995C31.6271 43.9995 32.5912 44.8532 33.1412 44.2739C33.1412 44.2739 34.6638 33.688 36.3305 33.6704L42.0635 33.7298C42.0635 33.7298 42.7438 34.0375 43.0137 35.3204L46.5212 45.9691L66.8317 46.6486L68.4442 43.419L51.639 43.1499L51.6372 43.142C51.5522 42.8141 48.9343 32.708 47.0707 31.4216C47.0697 31.4205 47.0687 31.4205 47.0678 31.4195C47.0048 31.375 46.9358 31.3396 46.8629 31.3144C46.8629 31.3144 39.8746 30.2484 37.56 30.8434C37.56 30.8434 35.1492 31.3383 34.5474 32.064C34.5456 32.0659 34.5439 32.0678 34.5424 32.0698C34.4624 32.1509 33.5338 33.1604 33.1968 36.1173L31.6271 43.9995Z" fill="black"/>
<path opacity="0.8" d="M44.2894 32.6416C44.7618 33.5843 48.7586 45.1593 48.7586 45.1593L51.639 43.1499L51.6372 43.142C51.5522 42.8141 48.9316 32.6971 47.0678 31.4195C45.8371 31.6065 43.9682 32.0016 44.2894 32.6416Z" fill="#65617D"/>
<path opacity="0.8" d="M49.8756 27.4892L52.0357 35.098L64.0453 34.9815L63.926 36.1095C63.926 36.1095 54.4936 37.3069 50.5114 35.364L48.4859 28.413L29.5404 28.1525L33.1655 27.3693L49.8756 27.4892Z" fill="#65617D"/>
<path opacity="0.1" d="M49.8756 27.4892L52.0357 35.098L64.0453 34.9815L63.926 36.1095C63.926 36.1095 54.4936 37.3069 50.5114 35.364L48.4859 28.413L29.5404 28.1525L33.1655 27.3693L49.8756 27.4892Z" fill="white"/>
<path opacity="0.1" d="M105.927 40.4759C105.927 40.4759 112.3 43.84 107.474 46.7955L106.195 47.0661C106.195 47.0661 110.929 43.7813 103.183 40.424L105.927 40.4759Z" fill="black"/>
<path opacity="0.8" d="M105.731 40.4722C105.731 40.4722 112.104 43.8363 107.278 46.7918L105.999 47.0624C105.999 47.0624 110.733 43.7776 102.987 40.4203L105.731 40.4722Z" fill="#DCE0ED"/>
<path opacity="0.8" d="M42.5911 47.3522C42.655 43.9609 41.1055 41.1813 39.1303 41.1439C37.1551 41.1065 35.5021 43.8254 35.4382 47.2168C35.3744 50.6081 36.9238 53.3877 38.899 53.4251C40.8742 53.4625 42.5272 50.7436 42.5911 47.3522Z" fill="#636780"/>
<path opacity="0.1" d="M41.7329 47.4686C41.7846 44.7201 40.6625 42.4701 39.2266 42.4429C37.7906 42.4157 36.5846 44.6217 36.5328 47.3701C36.481 50.1185 37.6031 52.3686 39.0391 52.3958C40.4751 52.423 41.6811 50.217 41.7329 47.4686Z" fill="black"/>
<path opacity="0.8" d="M41.7366 47.2721C41.7883 44.5237 40.6662 42.2736 39.2302 42.2464C37.7943 42.2192 36.5882 44.4252 36.5365 47.1736C36.4847 49.922 37.6068 52.1721 39.0428 52.1993C40.4787 52.2265 41.6848 50.0205 41.7366 47.2721Z" fill="#F0F0F4"/>
<path opacity="0.8" d="M39.0349 43.8807C39.0413 43.5416 38.9089 43.2641 38.7393 43.2609C38.5696 43.2576 38.4269 43.53 38.4205 43.8691C38.4141 44.2082 38.5465 44.4858 38.7161 44.489C38.8858 44.4922 39.0285 44.2199 39.0349 43.8807Z" fill="#636780"/>
<path opacity="0.8" d="M37.705 49.2305C37.7113 48.8914 37.579 48.6139 37.4094 48.6106C37.2397 48.6074 37.097 48.8798 37.0906 49.2189C37.0842 49.558 37.2166 49.8356 37.3862 49.8388C37.5559 49.842 37.6986 49.5697 37.705 49.2305Z" fill="#636780"/>
<path opacity="0.8" d="M41.0663 46.7347C41.0727 46.3956 40.9403 46.118 40.7707 46.1148C40.601 46.1116 40.4583 46.3839 40.4519 46.7231C40.4455 47.0622 40.5779 47.3397 40.7475 47.3429C40.9172 47.3461 41.0599 47.0738 41.0663 46.7347Z" fill="#636780"/>
<path opacity="0.8" d="M40.0992 50.2997C40.1056 49.9605 39.9732 49.683 39.8036 49.6798C39.6339 49.6766 39.4912 49.9489 39.4848 50.288C39.4785 50.6272 39.6108 50.9047 39.7805 50.9079C39.9501 50.9111 40.0928 50.6388 40.0992 50.2997Z" fill="#636780"/>
<path opacity="0.8" d="M37.3288 45.8961C37.3352 45.5569 37.2028 45.2794 37.0332 45.2762C36.8635 45.273 36.7208 45.5453 36.7144 45.8844C36.708 46.2236 36.8404 46.5011 37.01 46.5043C37.1797 46.5075 37.3224 46.2352 37.3288 45.8961Z" fill="#636780"/>
<path opacity="0.8" d="M39.5608 47.4228C39.576 46.6174 39.1855 45.9568 38.6887 45.9474C38.1918 45.938 37.7768 46.5833 37.7616 47.3887C37.7464 48.1942 38.1369 48.8548 38.6337 48.8642C39.1305 48.8736 39.5456 48.2283 39.5608 47.4228Z" fill="#636780"/>
<path opacity="0.1" d="M91.4608 20.9545C91.4608 20.9545 80.5771 21.1415 66.3943 24.7552L91.4608 20.9545Z" fill="black"/>
<path opacity="0.8" d="M39.9276 0.879898C39.9276 0.879898 40.5164 0.985832 40.1945 1.76171C40.0244 2.13851 39.898 2.53366 39.8179 2.93938C39.8179 2.93938 39.2215 3.23614 39.2643 2.21801C39.3071 1.19989 39.9276 0.879898 39.9276 0.879898Z" fill="#DCE0ED"/>
<path opacity="0.8" d="M62.8166 19.5505L63.6836 23.0106L66.6704 20.3863" stroke="black" stroke-miterlimit="10"/>
<path opacity="0.8" d="M67.9765 23.6267L59.1461 22.107L57.6567 30.8087L66.487 32.3284L67.9765 23.6267Z" fill="white"/>
<path opacity="0.8" d="M61.7064 31.0867L61.8725 30.1163C61.3545 30.0255 60.8719 29.7917 60.4789 29.4413L60.819 28.8372C61.2243 29.1823 61.7138 29.4134 62.2374 29.5066C62.9177 29.6237 63.445 29.3089 63.5387 28.7612C63.6292 28.2328 63.3114 27.8419 62.6517 27.4316C61.7402 26.8791 61.3215 26.3521 61.4646 25.5162C61.6011 24.7188 62.2153 24.2015 63.1215 24.2091L63.2876 23.2387L63.7723 23.3221L63.6128 24.254C64.0493 24.3327 64.4583 24.5223 64.8009 24.8047L64.4528 25.3975C64.1464 25.1186 63.7651 24.936 63.3561 24.8726C62.6183 24.7456 62.3741 25.1585 62.3083 25.5428C62.2228 26.0424 62.4253 26.3344 63.1997 26.8237C64.1175 27.397 64.6395 28.0012 64.4931 28.8563C64.3632 29.6152 63.7146 30.2356 62.6997 30.229L62.5287 31.2282L61.7064 31.0867Z" fill="#636780"/>
<path opacity="0.8" d="M61.5562 62.619C61.6327 62.6164 61.7051 62.5841 61.7582 62.5289C61.8114 62.4738 61.8411 62.4001 61.8411 62.3234C61.8411 62.2467 61.8114 62.173 61.7582 62.1178C61.7051 62.0627 61.6327 62.0304 61.5562 62.0277C61.4798 62.0304 61.4074 62.0627 61.3542 62.1178C61.3011 62.173 61.2714 62.2467 61.2714 62.3234C61.2714 62.4001 61.3011 62.4738 61.3542 62.5289C61.4074 62.5841 61.4798 62.6164 61.5562 62.619V62.619Z" fill="#65617D"/>
</g>
<path opacity="0.1" d="M130.517 89.649C132.545 89.649 134.188 89.3704 134.188 89.0266C134.188 88.6829 132.545 88.4043 130.517 88.4043C128.489 88.4043 126.845 88.6829 126.845 89.0266C126.845 89.3704 128.489 89.649 130.517 89.649Z" fill="#6C63FF"/>
<path d="M128.051 86.1347C128.051 86.1347 130.145 86.07 130.777 85.6193C131.408 85.1686 133.998 84.6305 134.155 85.3533C134.311 86.0761 137.302 88.9481 134.938 88.9672C132.573 88.9864 129.444 88.5979 128.814 88.2132C128.184 87.8284 128.051 86.1347 128.051 86.1347Z" fill="#A8A8A8"/>
<path opacity="0.2" d="M134.98 88.7156C132.615 88.7348 129.486 88.3463 128.856 87.9615C128.376 87.6685 128.185 86.617 128.121 86.1319C128.077 86.1339 128.051 86.1347 128.051 86.1347C128.051 86.1347 128.184 87.8284 128.814 88.2131C129.444 88.5979 132.573 88.9864 134.938 88.9672C135.62 88.9617 135.856 88.7182 135.843 88.3576C135.748 88.5755 135.488 88.7115 134.98 88.7156Z" fill="black"/>
<path opacity="0.1" d="M151.813 82.2537C153.373 82.2537 154.638 82.0392 154.638 81.7748C154.638 81.5103 153.373 81.2959 151.813 81.2959C150.252 81.2959 148.988 81.5103 148.988 81.7748C148.988 82.0392 150.252 82.2537 151.813 82.2537Z" fill="#6C63FF"/>
<path d="M149.915 79.5494C149.915 79.5494 151.527 79.4996 152.013 79.1528C152.498 78.806 154.492 78.3919 154.612 78.9481C154.733 79.5043 157.034 81.7144 155.215 81.7291C153.395 81.7438 150.987 81.4449 150.502 81.1488C150.017 80.8527 149.915 79.5494 149.915 79.5494Z" fill="#A8A8A8"/>
<path opacity="0.2" d="M155.247 81.5355C153.428 81.5502 151.019 81.2513 150.535 80.9552C150.166 80.7297 150.018 79.9206 149.969 79.5473C149.935 79.5488 149.915 79.5494 149.915 79.5494C149.915 79.5494 150.017 80.8527 150.502 81.1488C150.987 81.4449 153.395 81.7438 155.215 81.7291C155.74 81.7248 155.921 81.5374 155.911 81.2599C155.838 81.4276 155.638 81.5323 155.247 81.5355Z" fill="black"/>
<path opacity="0.1" d="M138.994 113.195C142.719 113.195 145.739 112.683 145.739 112.052C145.739 111.42 142.719 110.908 138.994 110.908C135.269 110.908 132.249 111.42 132.249 112.052C132.249 112.683 135.269 113.195 138.994 113.195Z" fill="#6C63FF"/>
<path d="M134.464 106.739C134.464 106.739 138.311 106.62 139.471 105.792C140.63 104.964 145.389 103.976 145.677 105.304C145.964 106.631 151.459 111.907 147.115 111.943C142.771 111.978 137.022 111.264 135.865 110.557C134.708 109.85 134.464 106.739 134.464 106.739Z" fill="#A8A8A8"/>
<path opacity="0.2" d="M147.193 111.48C142.849 111.515 137.1 110.802 135.943 110.095C135.061 109.557 134.71 107.625 134.593 106.734C134.511 106.738 134.464 106.739 134.464 106.739C134.464 106.739 134.708 109.85 135.865 110.557C137.022 111.264 142.771 111.978 147.115 111.943C148.369 111.932 148.802 111.485 148.778 110.823C148.604 111.223 148.126 111.473 147.193 111.48Z" fill="black"/>
<path d="M210.21 71.8063C210.211 76.3457 208.462 80.7098 205.331 83.9878C202.199 87.2659 197.926 89.2047 193.403 89.3997C188.88 89.5946 184.457 88.0307 181.057 85.0342C177.656 82.0377 175.541 77.8402 175.152 73.3175C175.127 73.0315 175.108 72.7455 175.099 72.4552V72.4403C175.091 72.229 175.087 72.0176 175.087 71.8063C175.088 67.137 176.939 62.6594 180.232 59.3583C183.526 56.0571 187.992 54.2026 192.648 54.2026C197.305 54.2026 201.771 56.0571 205.065 59.3583C208.358 62.6594 210.209 67.137 210.21 71.8063V71.8063Z" fill="#65617D"/>
<path opacity="0.2" d="M210.21 71.8063C210.211 76.3457 208.462 80.7098 205.331 83.9878C202.199 87.2659 197.926 89.2047 193.403 89.3997C188.88 89.5946 184.457 88.0307 181.057 85.0342C177.656 82.0377 175.541 77.8402 175.152 73.3175C175.127 73.0315 175.108 72.7455 175.099 72.4552V72.4403C175.091 72.229 175.087 72.0176 175.087 71.8063C175.088 67.137 176.939 62.6594 180.232 59.3583C183.526 56.0571 187.992 54.2026 192.648 54.2026C197.305 54.2026 201.771 56.0571 205.065 59.3583C208.358 62.6594 210.209 67.137 210.21 71.8063V71.8063Z" fill="black"/>
<path d="M192.648 81.4115C197.938 81.4115 202.227 77.1111 202.227 71.8063C202.227 66.5015 197.938 62.2011 192.648 62.2011C187.357 62.2011 183.069 66.5015 183.069 71.8063C183.069 77.1111 187.357 81.4115 192.648 81.4115Z" fill="#DCE0ED"/>
<path d="M192.648 77.5695C195.822 77.5695 198.396 74.9892 198.396 71.8064C198.396 68.6235 195.822 66.0432 192.648 66.0432C189.474 66.0432 186.9 68.6235 186.9 71.8064C186.9 74.9892 189.474 77.5695 192.648 77.5695Z" fill="#65617D"/>
<path d="M116.455 71.8063C116.455 76.3457 114.707 80.7097 111.575 83.9878C108.444 87.2659 104.171 89.2047 99.6478 89.3997C95.1249 89.5946 90.7016 88.0307 87.301 85.0342C83.9004 82.0377 81.7853 77.8402 81.3969 73.3175C81.3714 73.0315 81.3522 72.7455 81.3437 72.4552V72.4403C81.3352 72.229 81.3309 72.0176 81.3309 71.8063C81.3325 67.137 83.1834 62.6594 86.4768 59.3583C89.7701 56.0571 94.2362 54.2026 98.8929 54.2026C103.55 54.2026 108.016 56.0571 111.309 59.3583C114.602 62.6594 116.453 67.137 116.455 71.8063V71.8063Z" fill="#65617D"/>
<path opacity="0.2" d="M116.455 71.8063C116.455 76.3457 114.707 80.7097 111.575 83.9878C108.444 87.2659 104.171 89.2047 99.6478 89.3997C95.1249 89.5946 90.7016 88.0307 87.301 85.0342C83.9004 82.0377 81.7853 77.8402 81.3969 73.3175C81.3714 73.0315 81.3522 72.7455 81.3437 72.4552V72.4403C81.3352 72.229 81.3309 72.0176 81.3309 71.8063C81.3325 67.137 83.1834 62.6594 86.4768 59.3583C89.7701 56.0571 94.2362 54.2026 98.8929 54.2026C103.55 54.2026 108.016 56.0571 111.309 59.3583C114.602 62.6594 116.453 67.137 116.455 71.8063V71.8063Z" fill="black"/>
<path d="M98.8924 81.4115C104.183 81.4115 108.472 77.1111 108.472 71.8063C108.472 66.5015 104.183 62.2011 98.8924 62.2011C93.6019 62.2011 89.3131 66.5015 89.3131 71.8063C89.3131 77.1111 93.6019 81.4115 98.8924 81.4115Z" fill="#DCE0ED"/>
<path d="M98.8924 77.5695C102.067 77.5695 104.64 74.9892 104.64 71.8064C104.64 68.6235 102.067 66.0432 98.8924 66.0432C95.7181 66.0432 93.1449 68.6235 93.1449 71.8064C93.1449 74.9892 95.7181 77.5695 98.8924 77.5695Z" fill="#65617D"/>
<path d="M215.688 68.5066L209.828 68.2511L204.478 58.2882L185.625 56.7554L176.453 68.7621L176.963 72.083L175.689 75.1486L115.818 75.6595V74.1267H115.308L114.799 71.8276H119.385L116.073 68.2511L104.353 58.2882C104.353 58.2882 84.2264 58.7991 83.9716 58.2882C83.7169 57.7772 85.1181 52.5403 85.1181 52.5403L93.7803 49.9857L123.334 47.6865C129.83 37.3403 135.69 32.4866 135.69 32.4866H211.612L215.178 50.8798V50.9232L215.688 68.5066Z" fill="#444053"/>
<path d="M173.396 69.7839C173.396 69.7839 181.039 55.4781 186.899 55.4781H201.166C201.166 55.4781 204.733 55.4781 206.261 58.2882L212.121 69.7839H207.535C207.535 69.7839 203.714 59.0545 199.383 58.7991C195.052 58.5436 187.663 58.7991 187.663 58.7991C187.663 58.7991 185.116 58.7991 183.587 61.8646C182.058 64.9301 176.89 71.6077 176.89 71.6077C176.89 71.6077 171.358 73.3603 173.396 69.7839Z" fill="#33323D"/>
<path d="M219 67.4849H209.417L209.319 75.1485L219 72.8495V67.4849Z" fill="#33323D"/>
<path d="M80.4048 62.8865C80.4048 62.8865 80.9144 59.0545 84.4812 57.5218L107.92 56.2445C107.92 56.2445 111.742 56.4999 113.78 61.3537L120.404 71.3167V72.8495H113.015C113.015 72.8495 109.449 59.31 99.2579 59.8209H87.0289C87.0289 59.8209 84.2264 59.8209 83.2073 64.4192L80.4048 62.8865Z" fill="#33323D"/>
<path d="M135.435 34.0193H213.65C213.65 33.2741 213.355 32.5593 212.829 32.0323C212.303 31.5053 211.591 31.2093 210.847 31.2093H138.238C137.87 31.2093 137.505 31.2819 137.165 31.4232C136.825 31.5644 136.516 31.7714 136.256 32.0323C135.996 32.2933 135.789 32.603 135.649 32.944C135.508 33.2849 135.435 33.6503 135.435 34.0193Z" fill="#33323D"/>
<path opacity="0.3" d="M152.197 49.0916H130.553C130.31 49.0916 130.07 49.0305 129.855 48.9139C129.641 48.7973 129.459 48.6288 129.326 48.4238C129.194 48.2189 129.114 47.9839 129.095 47.7402C129.075 47.4965 129.117 47.2518 129.216 47.0284L132.641 39.3017C133.169 38.1096 134.031 37.0967 135.122 36.3859C136.213 35.675 137.486 35.2967 138.787 35.2967H151.937C152.179 35.2967 152.419 35.3444 152.642 35.4372C152.865 35.53 153.068 35.6661 153.239 35.8375C153.41 36.009 153.546 36.2126 153.639 36.4366C153.731 36.6606 153.779 36.9008 153.779 37.1432V47.5055C153.779 47.7138 153.738 47.92 153.658 48.1125C153.579 48.3049 153.462 48.4798 153.315 48.627C153.169 48.7743 152.994 48.8911 152.802 48.9708C152.61 49.0506 152.405 49.0916 152.197 49.0916Z" fill="#6C63FF"/>
<path opacity="0.3" d="M179.441 35.2967H160.473C159.871 35.2967 159.384 35.7856 159.384 36.3886V47.9997C159.384 48.6027 159.871 49.0916 160.473 49.0916H179.441C180.042 49.0916 180.53 48.6027 180.53 47.9997V36.3886C180.53 35.7856 180.042 35.2967 179.441 35.2967Z" fill="#6C63FF"/>
<path d="M215.179 50.8797V50.9233L182.313 51.3906L181.457 32.4867H211.612L215.179 50.8797Z" fill="#33323D"/>
<path opacity="0.3" d="M208.23 35.2967H186.205C185.603 35.2967 185.116 35.7856 185.116 36.3886V47.9997C185.116 48.6027 185.603 49.0916 186.205 49.0916H208.23C208.831 49.0916 209.319 48.6027 209.319 47.9997V36.3886C209.319 35.7856 208.831 35.2967 208.23 35.2967Z" fill="#6C63FF"/>
<path d="M154.961 53.9453H147.501C147.31 53.9453 147.155 54.1007 147.155 54.2922V55.1312C147.155 55.3228 147.31 55.4781 147.501 55.4781H154.961C155.152 55.4781 155.307 55.3228 155.307 55.1312V54.2922C155.307 54.1007 155.152 53.9453 154.961 53.9453Z" fill="#33323D"/>
<path d="M178.4 53.9453H170.94C170.749 53.9453 170.594 54.1007 170.594 54.2922V55.1312C170.594 55.3228 170.749 55.4781 170.94 55.4781H178.4C178.591 55.4781 178.746 55.3228 178.746 55.1312V54.2922C178.746 54.1007 178.591 53.9453 178.4 53.9453Z" fill="#33323D"/>
<path d="M196.537 33.7711H187.103V43.0679H196.537V33.7711Z" fill="white"/>
<path d="M191.355 42.6331V41.5964C190.801 41.5947 190.259 41.4383 189.789 41.1448L190.035 40.457C190.517 40.7429 191.066 40.8952 191.626 40.8985C192.352 40.8985 192.844 40.4776 192.844 39.8925C192.844 39.3279 192.445 38.9789 191.687 38.671C190.643 38.2604 190.115 37.7882 190.115 36.8952C190.115 36.0432 190.66 35.3966 191.602 35.2426V34.2059H192.12V35.2015C192.587 35.2052 193.045 35.329 193.451 35.5608L193.195 36.2382C192.827 36.0035 192.399 35.8821 191.963 35.8893C191.175 35.8893 190.995 36.3614 190.995 36.772C190.995 37.3058 191.257 37.5727 192.148 37.9422C193.202 38.3733 193.851 38.9071 193.851 39.8206C193.851 40.6315 193.288 41.3912 192.234 41.5656V42.6332L191.355 42.6331Z" fill="#636780"/>
<path d="M83.338 91.6665C83.3382 94.398 82.2863 97.0241 80.4019 98.9966C78.5176 100.969 75.9463 102.136 73.2247 102.253C70.503 102.37 67.8414 101.429 65.7951 99.6263C63.7489 97.8231 62.4761 95.2973 62.2425 92.5758C62.2271 92.4037 62.2156 92.2316 62.2105 92.057V92.048C62.2053 91.9208 62.2028 91.7937 62.2028 91.6665C62.2064 88.8586 63.3214 86.1669 65.3028 84.1827C67.2842 82.1984 69.9701 81.0839 72.7704 81.0839C75.5707 81.0839 78.2566 82.1984 80.238 84.1827C82.2194 86.1669 83.3344 88.8586 83.338 91.6665Z" fill="#65617D"/>
<path d="M72.7701 97.4463C75.9535 97.4463 78.5342 94.8586 78.5342 91.6665C78.5342 88.4744 75.9535 85.8867 72.7701 85.8867C69.5866 85.8867 67.0059 88.4744 67.0059 91.6665C67.0059 94.8586 69.5866 97.4463 72.7701 97.4463Z" fill="#DCE0ED"/>
<path d="M72.7701 95.1344C74.6802 95.1344 76.2286 93.5818 76.2286 91.6665C76.2286 89.7513 74.6802 88.1986 72.7701 88.1986C70.86 88.1986 69.3116 89.7513 69.3116 91.6665C69.3116 93.5818 70.86 95.1344 72.7701 95.1344Z" fill="#65617D"/>
<path d="M45.0179 71.5439L19.571 72.0576V68.2905C19.7991 65.2632 22.895 64.2009 25.7208 63.8683C27.9239 63.6175 30.1545 63.7853 32.2958 64.3628C37.6948 65.7962 41.138 66.0736 42.8288 66.1006C43.2008 66.1063 43.5594 66.2405 43.8441 66.4806C44.1288 66.7207 44.3221 67.0519 44.3915 67.4184C44.4722 67.8487 44.5516 68.3174 44.6259 68.7798C44.6823 69.142 44.7361 69.4991 44.7848 69.8318C44.9244 70.7964 45.0179 71.5439 45.0179 71.5439Z" fill="#65617D"/>
<path d="M65.3193 92.351H12.4568C12.0487 92.3553 11.6483 92.239 11.3055 92.0168C10.9627 91.7946 10.6927 91.4763 10.529 91.1013C10.1306 90.147 10.6879 89.5382 11.2822 89.1812C12.4985 88.4583 13.4205 87.3272 13.885 85.9882C14.4486 84.3249 14.9994 81.706 15.2159 77.6242C15.4388 73.4024 16.9631 71.3152 18.6104 70.3044H18.6116C20.7393 68.9995 23.0718 69.4888 23.0718 69.4888L44.5055 69.6609C44.8871 69.8344 45.24 70.0653 45.5521 70.3455C47.4619 72.1282 44.6772 74.4556 44.6772 74.4556C38.6991 80.7915 43.2246 87.2135 43.2246 87.2135H54.1919C56.241 87.2241 58.2448 86.609 59.9368 85.45C61.4189 84.4238 61.9927 83.4296 62.2143 82.8285C62.3834 82.3687 62.555 81.9102 62.76 81.4658C65.6369 75.2095 62.1669 65.032 60.6695 61.2263C60.298 60.2797 60.0483 59.7274 60.0483 59.7274L63.4875 59.4667L65.6626 59.301L65.6843 59.2997C70.4776 67.5892 72.2593 76.1073 72.8588 82.4188C72.9151 83.0135 72.9613 83.5902 72.9984 84.1438C73.0666 85.1965 72.9186 86.2521 72.5634 87.2452C72.2082 88.2383 71.6535 89.1476 70.9337 89.917C70.2138 90.6864 69.3441 91.2994 68.3783 91.7181C67.4126 92.1368 66.3714 92.3522 65.3193 92.351V92.351Z" fill="#6C63FF"/>
<path opacity="0.1" d="M44.7848 69.8318H19.571V68.7798H44.6259C44.6823 69.142 44.7361 69.4991 44.7848 69.8318Z" fill="black"/>
<path opacity="0.1" d="M45.552 70.3455H18.814C18.7445 70.3459 18.6756 70.3319 18.6116 70.3044C20.7393 68.9994 23.0718 69.4888 23.0718 69.4888L44.5055 69.6609C44.887 69.8344 45.2399 70.0653 45.552 70.3455Z" fill="black"/>
<path d="M45.775 69.0373H9.45893C9.16938 69.0373 8.93465 69.2726 8.93465 69.5629C8.93465 69.8532 9.16938 70.0886 9.45893 70.0886H45.775C46.0645 70.0886 46.2992 69.8532 46.2992 69.5629C46.2992 69.2726 46.0645 69.0373 45.775 69.0373Z" fill="#DCE0ED"/>
<path opacity="0.1" d="M72.8588 82.4188C71.6406 83.7469 70.744 84.2696 70.7862 82.8684C70.9143 78.6299 63.4875 59.4667 63.4875 59.4667L65.6843 59.2997C70.4775 67.5892 72.2593 76.1073 72.8588 82.4188Z" fill="black"/>
<path opacity="0.1" d="M83.274 90.5054C82.0123 90.8085 80.4521 91.1168 78.5282 91.3994C77.8134 91.5047 77.0466 91.6057 76.2276 91.7025C74.264 91.9362 71.9929 92.1405 69.3695 92.2972C68.6266 92.3421 67.8551 92.3828 67.0549 92.4192C65.5562 92.4873 63.9521 92.5395 62.2425 92.5759L62.2105 92.057V92.048C64.5994 91.0808 68.3576 88.5005 68.9635 81.7792C70.4733 81.1959 72.0964 80.9678 73.7079 81.1125C75.3194 81.2572 76.8764 81.7707 78.2588 82.6137C79.6412 83.4567 80.8122 84.6065 81.6817 85.9747C82.5512 87.3429 83.0959 88.8929 83.274 90.5054Z" fill="black"/>
<path d="M60.2186 92.3511C60.2186 92.3511 72.349 91.0336 68.1732 72.4986C68.1732 72.4986 74.1673 78.0078 77.8954 81.0702C81.6235 84.1327 88.2684 88.3541 88.2684 88.3541C88.2684 88.3541 84.3 92.0729 60.2186 92.3511Z" fill="#6C63FF"/>
<path opacity="0.1" d="M60.2186 92.3511C60.2186 92.3511 72.349 91.0336 68.1732 72.4986C68.1732 72.4986 74.1673 78.0078 77.8954 81.0702C81.6235 84.1327 88.2684 88.3541 88.2684 88.3541C88.2684 88.3541 84.3 92.0729 60.2186 92.3511Z" fill="white"/>
<path d="M27.8112 102.263C33.6476 102.263 38.3788 97.5187 38.3788 91.6665C38.3788 85.8143 33.6476 81.0702 27.8112 81.0702C21.9749 81.0702 17.2436 85.8143 17.2436 91.6665C17.2436 97.5187 21.9749 102.263 27.8112 102.263Z" fill="#65617D"/>
<path d="M27.8112 97.4463C30.9947 97.4463 33.5754 94.8586 33.5754 91.6665C33.5754 88.4744 30.9947 85.8867 27.8112 85.8867C24.6278 85.8867 22.0471 88.4744 22.0471 91.6665C22.0471 94.8586 24.6278 97.4463 27.8112 97.4463Z" fill="#DCE0ED"/>
<path d="M27.8112 95.1344C29.7213 95.1344 31.2697 93.5818 31.2697 91.6665C31.2697 89.7513 29.7213 88.1986 27.8112 88.1986C25.9012 88.1986 24.3527 89.7513 24.3527 91.6665C24.3527 93.5818 25.9012 95.1344 27.8112 95.1344Z" fill="#65617D"/>
<path opacity="0.1" d="M39.6598 88.4843C39.6598 81.6413 34.2403 76.094 27.5551 76.094C20.8698 76.094 15.4503 81.6413 15.4503 88.4843C15.4503 88.7731 15.4608 89.0593 15.4798 89.3431H39.6304C39.6493 89.0593 39.6598 88.7731 39.6598 88.4843Z" fill="black"/>
<path d="M39.2115 88.2708C39.2115 81.6812 33.9927 76.3394 27.5551 76.3394C21.1174 76.3394 15.8986 81.6812 15.8986 88.2708C15.8986 88.5488 15.9087 88.8244 15.927 89.0977H39.1831C39.2014 88.8244 39.2115 88.5488 39.2115 88.2708Z" fill="#6C63FF"/>
<path opacity="0.1" d="M39.2114 88.2706C39.2114 88.462 39.2063 88.652 39.1974 88.8409C39.1935 88.9269 39.1884 89.0117 39.1833 89.0977H15.9268C15.9217 89.0117 15.9166 88.9269 15.9127 88.8409C15.9038 88.652 15.8986 88.462 15.8986 88.2706C15.8986 81.6816 21.1171 76.3398 27.555 76.3398C33.993 76.3398 39.2114 81.6816 39.2114 88.2706Z" fill="white"/>
<path opacity="0.1" d="M39.1974 88.8408C39.1935 88.9269 39.1884 89.0116 39.1833 89.0977H15.9268C15.9217 89.0116 15.9166 88.9269 15.9127 88.8408H39.1974Z" fill="black"/>
<path opacity="0.1" d="M70.7754 71.2235C71.5474 70.8734 71.4605 69.0093 70.5813 67.0598C69.7021 65.1103 68.3636 63.8137 67.5916 64.1638C66.8196 64.5138 66.9065 66.378 67.7857 68.3274C68.6649 70.2769 70.0034 71.5735 70.7754 71.2235Z" fill="black"/>
<path d="M70.9035 71.0951C71.6755 70.745 71.5886 68.8809 70.7094 66.9314C69.8302 64.9819 68.4917 63.6853 67.7197 64.0354C66.9477 64.3854 67.0346 66.2495 67.9138 68.199C68.793 70.1485 70.1315 71.4451 70.9035 71.0951Z" fill="#DCE0ED"/>
<path opacity="0.1" d="M65.6625 59.301V61.3136H61.7557C61.3919 61.314 61.0286 61.2848 60.6695 61.2263C60.298 60.2797 60.0483 59.7274 60.0483 59.7274L63.4875 59.4667L65.6625 59.301Z" fill="black"/>
<path d="M65.6625 61.0566H61.7557C58.3247 61.0566 55.5433 58.4825 55.5433 55.3073V54.7738C55.5433 51.5986 58.3247 49.0245 61.7557 49.0245L65.6625 49.3801V61.0566Z" fill="#6C63FF"/>
<path d="M59.2259 52.4282C59.2259 52.4282 61.5636 53.6804 60.2186 55.7997C60.2186 55.7997 58.5695 58.513 55.9756 58.2561L55.0309 52.4282C55.0309 52.4282 58.1371 52.1392 59.2259 52.4282Z" fill="#6C63FF"/>
<path opacity="0.1" d="M58.3286 52.3149C58.6997 52.3295 59.0628 52.4273 59.3913 52.601C59.7198 52.7748 60.0052 53.0203 60.2267 53.3192C60.643 53.8972 60.8911 54.7401 60.2186 55.7997C60.2186 55.7997 58.5695 58.513 55.9756 58.2561L55.0309 52.4282C56.1271 52.3275 57.2281 52.2897 58.3286 52.3149V52.3149Z" fill="black"/>
<path opacity="0.1" d="M65.5345 49.3801C65.9466 49.3801 66.3547 49.4615 66.7354 49.6197C67.1162 49.7778 67.4621 50.0096 67.7536 50.3018C68.045 50.594 68.2762 50.9409 68.4339 51.3227C68.5916 51.7045 68.6728 52.1137 68.6728 52.5269V57.9098C68.6728 58.7444 68.3421 59.5448 67.7536 60.1349C67.165 60.725 66.3668 61.0566 65.5345 61.0566V61.0566V49.3801V49.3801Z" fill="black"/>
<path d="M65.6625 49.3801C66.4948 49.3801 67.2931 49.7117 67.8816 50.3018C68.4701 50.8919 68.8008 51.6923 68.8008 52.5269V57.9098C68.8008 58.7444 68.4701 59.5448 67.8816 60.1349C67.2931 60.725 66.4948 61.0566 65.6625 61.0566V49.3801Z" fill="#DCE0ED"/>
<path d="M54.7604 58.6254C56.1938 58.6254 57.3559 57.2078 57.3559 55.4592C57.3559 53.7105 56.1938 52.293 54.7604 52.293C53.3269 52.293 52.1648 53.7105 52.1648 55.4592C52.1648 57.2078 53.3269 58.6254 54.7604 58.6254Z" fill="#6C63FF"/>
<path d="M27.12 70.0959L28.2541 72.6282L30.1495 70.0959" stroke="black" stroke-miterlimit="10"/>
<path d="M32.7804 72.734H23.5324V81.8472H32.7804V72.734Z" fill="white"/>
<path d="M27.7007 81.421V80.4047C27.1579 80.403 26.6263 80.2497 26.1654 79.962L26.4063 79.2878C26.8787 79.568 27.4169 79.7173 27.9658 79.7205C28.6782 79.7205 29.1599 79.3079 29.1599 78.7344C29.1599 78.181 28.7685 77.8389 28.0259 77.5371C27.0024 77.1346 26.4847 76.6717 26.4847 75.7963C26.4847 74.9612 27.0195 74.3273 27.9427 74.1764V73.1602H28.4503V74.1361C28.9081 74.1398 29.3572 74.261 29.7549 74.4883L29.504 75.1524C29.1437 74.9222 28.724 74.8033 28.2969 74.8103C27.5242 74.8103 27.3477 75.2731 27.3477 75.6756C27.3477 76.1988 27.6045 76.4605 28.4775 76.8227C29.511 77.2452 30.1473 77.7684 30.1473 78.664C30.1473 79.4588 29.5955 80.2035 28.5619 80.3745V81.4209L27.7007 81.421Z" fill="#636780"/>
<path d="M11.4022 48.6439H10.026V69.9331H11.4022V48.6439Z" fill="#DCE0ED"/>
<path d="M10.026 48.6439C10.026 48.6439 4.91472 48.841 3.93178 49.2353C2.94883 49.6295 0 49.4324 0 49.4324V54.9518C0 54.9518 3.34201 54.1633 5.11131 54.7547C6.88061 55.346 10.6158 53.9662 10.6158 53.9662L10.026 48.6439Z" fill="#DCE0ED"/>
</g>
<defs>
<clipPath id="clip0">
<rect width="219" height="117" fill="white"/>
</clipPath>
</defs>
</svg>
